<svg xmlns="http://www.w3.org/2000/svg" viewBox="0 0 1019.08 828.5"><defs><style>.cls-1{fill:#27aae1;}</style></defs><title>backward</title><g id="Layer_2" data-name="Layer 2"><g id="icon"><path class="cls-1" d="M979.91,6.27A66.63,66.63,0,0,0,908,16.32L539.24,332.38v-265A67.29,67.29,0,0,0,428.15,16.32h0L23.5,363.15a67.31,67.31,0,0,0,0,102.2L428.15,812.19a66.81,66.81,0,0,0,43.59,16.31,67.6,67.6,0,0,0,28.32-6.27,66.61,66.61,0,0,0,39.18-61.14v-265L908,812.19a66.81,66.81,0,0,0,43.59,16.31,67.67,67.67,0,0,0,28.33-6.27,66.62,66.62,0,0,0,39.17-61.14V67.41A66.63,66.63,0,0,0,979.91,6.27ZM475.24,761.09a3.3,3.3,0,0,1-5.44,2.5L65.15,416.76A3.16,3.16,0,0,1,64,414.25a3.11,3.11,0,0,1,1.15-2.5L469.8,64.91a3.3,3.3,0,0,1,5.44,2.5Zm479.84,0a3.3,3.3,0,0,1-5.44,2.5L545,416.76a3.16,3.16,0,0,1-1.15-2.51,3.11,3.11,0,0,1,1.15-2.5L949.64,64.91a2.92,2.92,0,0,1,2-.87,3.64,3.64,0,0,1,1.53.38,2.89,2.89,0,0,1,1.92,3Z"/></g></g></svg>