<svg xmlns="http://www.w3.org/2000/svg" viewBox="0 0 1024 832"><defs><style>.cls-1{fill:#27aae1;}</style></defs><title>birthday_cake</title><g id="Layer_2" data-name="Layer 2"><g id="icon"><path class="cls-1" d="M992,768H32a32,32,0,0,0,0,64H992a32,32,0,0,0,0-64Z"/><path class="cls-1" d="M128,736H896a32,32,0,0,0,32-32V576a32,32,0,0,0-64,0v96H160V576a32,32,0,0,0-64,0V704A32,32,0,0,0,128,736Z"/><path class="cls-1" d="M182.84,512a86.93,86.93,0,0,0,86.83-86.83V406.83a22.84,22.84,0,0,1,45.67,0v18.34a86.83,86.83,0,1,0,173.66,0V406.83a22.84,22.84,0,0,1,45.67,0v18.34a86.83,86.83,0,1,0,173.66,0V406.83a22.84,22.84,0,0,1,45.67,0v18.34a86.83,86.83,0,1,0,173.66,0v-73l.34-31.84V320a96.11,96.11,0,0,0-96-96H192a96.11,96.11,0,0,0-96,96h0V425.17A86.93,86.93,0,0,0,182.84,512ZM192,288H832a32,32,0,0,1,32,31.86l-.33,31.8c0,.12,0,.23,0,.34v73.17a22.83,22.83,0,1,1-45.66,0V406.83a86.84,86.84,0,0,0-173.67,0v18.34a22.83,22.83,0,0,1-45.66,0V406.83a86.84,86.84,0,0,0-173.67,0v18.34a22.83,22.83,0,1,1-45.66,0V406.83a86.84,86.84,0,0,0-173.67,0v18.34a22.83,22.83,0,1,1-45.66,0V320A32,32,0,0,1,192,288Z"/><path class="cls-1" d="M512,192a32,32,0,0,0,32-32V32a32,32,0,0,0-64,0V160A32,32,0,0,0,512,192Z"/><path class="cls-1" d="M288,192a32,32,0,0,0,32-32V32a32,32,0,0,0-64,0V160A32,32,0,0,0,288,192Z"/><path class="cls-1" d="M736,192a32,32,0,0,0,32-32V32a32,32,0,0,0-64,0V160A32,32,0,0,0,736,192Z"/></g></g></svg>