<svg xmlns="http://www.w3.org/2000/svg" viewBox="0 0 960 960"><defs><style>.cls-1{fill:#27aae1;}</style></defs><title>box_check</title><g id="Layer_2" data-name="Layer 2"><g id="icon"><path class="cls-1" d="M416,677.49a95.38,95.38,0,0,1-67.88-28.12L169.37,470.63a32,32,0,0,1,45.26-45.26L393.37,604.12a32,32,0,0,0,45.26,0L777.37,265.37a32,32,0,0,1,45.26,45.26L483.88,649.37A95.38,95.38,0,0,1,416,677.49Z"/><path class="cls-1" d="M864,960H96A96.11,96.11,0,0,1,0,864V96A96.11,96.11,0,0,1,96,0H864a96.11,96.11,0,0,1,96,96V864A96.11,96.11,0,0,1,864,960ZM96,64A32,32,0,0,0,64,96V864a32,32,0,0,0,32,32H864a32,32,0,0,0,32-32V96a32,32,0,0,0-32-32Z"/></g></g></svg>