<svg xmlns="http://www.w3.org/2000/svg" viewBox="0 0 1024 832"><defs><style>.cls-1{fill:#27aae1;}</style></defs><title>briefcase_1</title><g id="Layer_2" data-name="Layer 2"><g id="icon"><path class="cls-1" d="M928,160H800a32,32,0,0,0,0,64H928a32,32,0,0,1,32,32v64H736V96A96.11,96.11,0,0,0,640,0H384a96.11,96.11,0,0,0-96,96V320H64V256a32,32,0,0,1,32-32H224a32,32,0,0,0,0-64H96A96.11,96.11,0,0,0,0,256V736a96.11,96.11,0,0,0,96,96H928a96.11,96.11,0,0,0,96-96V256A96.11,96.11,0,0,0,928,160ZM384,64H640a32,32,0,0,1,32,32v64H352V96A32,32,0,0,1,384,64ZM352,224H672v96H352ZM928,768H96a32,32,0,0,1-32-32V384H288V704a32,32,0,0,0,64,0V384H672V704a32,32,0,0,0,64,0V384H960V736A32,32,0,0,1,928,768Z"/></g></g></svg>