<svg xmlns="http://www.w3.org/2000/svg" viewBox="0 0 1024 832"><defs><style>.cls-1{fill:#27aae1;}</style></defs><title>browser</title><g id="Layer_2" data-name="Layer 2"><g id="icon"><path class="cls-1" d="M224,96a32,32,0,0,0-32,32v32H128a32,32,0,0,0,0,64H992a32,32,0,0,0,32-32V96A96.11,96.11,0,0,0,928,0H96A96.11,96.11,0,0,0,0,96V736a96.11,96.11,0,0,0,96,96H928a96.11,96.11,0,0,0,96-96V288a32,32,0,0,0-64,0V736a32,32,0,0,1-32,32H96a32,32,0,0,1-32-32V96A32,32,0,0,1,96,64H928a32,32,0,0,1,32,32v64H256V128A32,32,0,0,0,224,96Z"/></g></g></svg>