<svg xmlns="http://www.w3.org/2000/svg" viewBox="0 0 1024.01 832"><defs><style>.cls-1{fill:#27aae1;}</style></defs><title>bus</title><g id="Layer_2" data-name="Layer 2"><g id="icon"><path class="cls-1" d="M240,608A112,112,0,1,0,352,720,112.12,112.12,0,0,0,240,608Zm0,160a48,48,0,1,1,48-48A48.05,48.05,0,0,1,240,768Z"/><path class="cls-1" d="M784,608A112,112,0,1,0,896,720,112.12,112.12,0,0,0,784,608Zm0,160a48,48,0,1,1,48-48A48.05,48.05,0,0,1,784,768Z"/><path class="cls-1" d="M928,0H220.27A159.8,159.8,0,0,0,68.48,109.4L1.65,309.88a32,32,0,1,0,60.72,20.24l66.82-200.48A95.89,95.89,0,0,1,220.27,64H928a32,32,0,0,1,32,32V704a32,32,0,0,0,0,64,64.07,64.07,0,0,0,64-64V96A96.11,96.11,0,0,0,928,0Z"/><path class="cls-1" d="M384,128a32,32,0,0,0-64,0V352a32,32,0,0,1-32,32H32A32,32,0,0,0,0,416V704a64.07,64.07,0,0,0,64,64,32,32,0,0,0,0-64V448H288a96.11,96.11,0,0,0,96-96Z"/><path class="cls-1" d="M608,704H416a32,32,0,0,0,0,64H608a32,32,0,0,0,0-64Z"/><path class="cls-1" d="M864,384H448a32,32,0,0,0,0,64H864a32,32,0,0,0,0-64Z"/></g></g></svg>