<svg xmlns="http://www.w3.org/2000/svg" viewBox="0 0 832 1024"><defs><style>.cls-1{fill:#27aae1;}</style></defs><title>calculator</title><g id="Layer_2" data-name="Layer 2"><g id="icon"><path class="cls-1" d="M800,864a32,32,0,0,0,32-32V96A96.11,96.11,0,0,0,736,0H96A96.11,96.11,0,0,0,0,96V928a96.11,96.11,0,0,0,96,96H736a96.11,96.11,0,0,0,96-96,32,32,0,0,0-64,0,32,32,0,0,1-32,32H96a32,32,0,0,1-32-32V96A32,32,0,0,1,96,64H736a32,32,0,0,1,32,32V832A32,32,0,0,0,800,864Z"/><path class="cls-1" d="M704,160a32,32,0,0,0-32-32H160a32,32,0,0,0-32,32V352a32,32,0,0,0,32,32H672a32,32,0,0,0,32-32ZM640,320H192V192H640Z"/><path class="cls-1" d="M416,448a80,80,0,1,0,80,80A80.09,80.09,0,0,0,416,448Zm0,96a16,16,0,1,1,16-16A16,16,0,0,1,416,544Z"/><path class="cls-1" d="M416,704a80,80,0,1,0,80,80A80.09,80.09,0,0,0,416,704Zm0,96a16,16,0,1,1,16-16A16,16,0,0,1,416,800Z"/><path class="cls-1" d="M208,448a80,80,0,1,0,80,80A80.09,80.09,0,0,0,208,448Zm0,96a16,16,0,1,1,16-16A16,16,0,0,1,208,544Z"/><path class="cls-1" d="M208,704a80,80,0,1,0,80,80A80.09,80.09,0,0,0,208,704Zm0,96a16,16,0,1,1,16-16A16,16,0,0,1,208,800Z"/><path class="cls-1" d="M672,448H576a32,32,0,0,0-32,32V864a32,32,0,0,0,32,32h96a32,32,0,0,0,32-32V480A32,32,0,0,0,672,448ZM640,832H608V512h32Z"/></g></g></svg>