<svg xmlns="http://www.w3.org/2000/svg" viewBox="0 0 1024 832"><defs><style>.cls-1{fill:#27aae1;}</style></defs><title>calendar_boxes</title><g id="Layer_2" data-name="Layer 2"><g id="icon"><path class="cls-1" d="M800,96H928a32,32,0,0,1,32,32,32,32,0,0,0,64,0,96.11,96.11,0,0,0-96-96H800a32,32,0,0,0,0,64Z"/><path class="cls-1" d="M416,96H608a32,32,0,0,0,0-64H416a32,32,0,0,0,0,64Z"/><path class="cls-1" d="M992,192H128a32,32,0,0,0,0,64H960V736a32,32,0,0,1-32,32H96a32,32,0,0,1-32-32V128A32,32,0,0,1,96,96H224a32,32,0,0,0,0-64H96A96.11,96.11,0,0,0,0,128V736a96.11,96.11,0,0,0,96,96H928a96.11,96.11,0,0,0,96-96V224A32,32,0,0,0,992,192Z"/><path class="cls-1" d="M320,160a32,32,0,0,0,32-32V32a32,32,0,0,0-64,0v96A32,32,0,0,0,320,160Z"/><path class="cls-1" d="M704,160a32,32,0,0,0,32-32V32a32,32,0,0,0-64,0v96A32,32,0,0,0,704,160Z"/><path class="cls-1" d="M160,480h96a32,32,0,0,0,32-32V352a32,32,0,0,0-32-32H160a32,32,0,0,0-32,32v96A32,32,0,0,0,160,480Zm32-96h32v32H192Z"/><path class="cls-1" d="M362.67,480h96a32,32,0,0,0,32-32V352a32,32,0,0,0-32-32h-96a32,32,0,0,0-32,32v96A32,32,0,0,0,362.67,480Zm32-96h32v32h-32Z"/><path class="cls-1" d="M565.33,480h96a32,32,0,0,0,32-32V352a32,32,0,0,0-32-32h-96a32,32,0,0,0-32,32v96A32,32,0,0,0,565.33,480Zm32-96h32v32h-32Z"/><path class="cls-1" d="M768,480h96a32,32,0,0,0,32-32V352a32,32,0,0,0-32-32H768a32,32,0,0,0-32,32v96A32,32,0,0,0,768,480Zm32-96h32v32H800Z"/><path class="cls-1" d="M128,672a32,32,0,0,0,32,32h96a32,32,0,0,0,32-32V576a32,32,0,0,0-32-32H160a32,32,0,0,0-32,32Zm64-64h32v32H192Z"/><path class="cls-1" d="M330.67,672a32,32,0,0,0,32,32h96a32,32,0,0,0,32-32V576a32,32,0,0,0-32-32h-96a32,32,0,0,0-32,32Zm64-64h32v32h-32Z"/><path class="cls-1" d="M533.33,672a32,32,0,0,0,32,32h96a32,32,0,0,0,32-32V576a32,32,0,0,0-32-32h-96a32,32,0,0,0-32,32Zm64-64h32v32h-32Z"/><path class="cls-1" d="M736,672a32,32,0,0,0,32,32h96a32,32,0,0,0,32-32V576a32,32,0,0,0-32-32H768a32,32,0,0,0-32,32Zm64-64h32v32H800Z"/></g></g></svg>