<svg xmlns="http://www.w3.org/2000/svg" viewBox="0 0 1024 832"><defs><style>.cls-1{fill:#27aae1;}</style></defs><title>calendar_plus</title><g id="Layer_2" data-name="Layer 2"><g id="icon"><path class="cls-1" d="M800,96H928a32,32,0,0,1,32,32,32,32,0,0,0,64,0,96.11,96.11,0,0,0-96-96H800a32,32,0,0,0,0,64Z"/><path class="cls-1" d="M416,96H608a32,32,0,0,0,0-64H416a32,32,0,0,0,0,64Z"/><path class="cls-1" d="M992,192H128a32,32,0,0,0,0,64H960V736a32,32,0,0,1-32,32H96a32,32,0,0,1-32-32V128A32,32,0,0,1,96,96H224a32,32,0,0,0,0-64H96A96.11,96.11,0,0,0,0,128V736a96.11,96.11,0,0,0,96,96H928a96.11,96.11,0,0,0,96-96V224A32,32,0,0,0,992,192Z"/><path class="cls-1" d="M320,160a32,32,0,0,0,32-32V32a32,32,0,0,0-64,0v96A32,32,0,0,0,320,160Z"/><path class="cls-1" d="M704,160a32,32,0,0,0,32-32V32a32,32,0,0,0-64,0v96A32,32,0,0,0,704,160Z"/><path class="cls-1" d="M512,288a32,32,0,0,0-32,32V480H320a32,32,0,0,0,0,64H480V704a32,32,0,0,0,64,0V544H704a32,32,0,0,0,0-64H544V320A32,32,0,0,0,512,288Z"/></g></g></svg>