<svg xmlns="http://www.w3.org/2000/svg" viewBox="0 0 1024 832"><defs><style>.cls-1{fill:#27aae1;}</style></defs><title>camera</title><g id="Layer_2" data-name="Layer 2"><g id="icon"><path class="cls-1" d="M928,160H772.24a32.14,32.14,0,0,1-27.44-15.54L686.08,46.61A96.48,96.48,0,0,0,603.76,0H420.24a96.48,96.48,0,0,0-82.32,46.61L279.2,144.46A32.14,32.14,0,0,1,251.76,160H96A96.11,96.11,0,0,0,0,256V736a96.11,96.11,0,0,0,96,96h32a32,32,0,0,0,0-64H96a32,32,0,0,1-32-32V256a32,32,0,0,1,32-32H251.76a96.48,96.48,0,0,0,82.32-46.61L392.8,79.54A32.14,32.14,0,0,1,420.24,64H603.76A32.14,32.14,0,0,1,631.2,79.54l58.72,97.85A96.48,96.48,0,0,0,772.24,224H928a32,32,0,0,1,32,32V736a32,32,0,0,1-32,32H224a32,32,0,0,0,0,64H928a96.11,96.11,0,0,0,96-96V256A96.11,96.11,0,0,0,928,160Z"/><path class="cls-1" d="M670.39,638.39A224,224,0,1,0,512,704,222.53,222.53,0,0,0,670.39,638.39ZM352,480c0-88.22,71.78-160,160-160s160,71.78,160,160S600.22,640,512,640,352,568.22,352,480Z"/></g></g></svg>