<svg xmlns="http://www.w3.org/2000/svg" viewBox="0 0 1024 640"><defs><style>.cls-1{fill:#27aae1;}</style></defs><title>cash</title><g id="Layer_2" data-name="Layer 2"><g id="icon"><path class="cls-1" d="M928,0H96A96.11,96.11,0,0,0,0,96V544a96.11,96.11,0,0,0,96,96H928a96.11,96.11,0,0,0,96-96V96A96.11,96.11,0,0,0,928,0Zm32,544a32,32,0,0,1-32,32H96a32,32,0,0,1-32-32V96A32,32,0,0,1,96,64H928a32,32,0,0,1,32,32Z"/><path class="cls-1" d="M896,192a64.07,64.07,0,0,1-64-64,32,32,0,0,0-32-32H224a32,32,0,0,0-32,32,64.07,64.07,0,0,1-64,64,32,32,0,0,0-32,32V416a32,32,0,0,0,32,32,64.07,64.07,0,0,1,64,64,32,32,0,0,0,32,32H800a32,32,0,0,0,32-32,64.07,64.07,0,0,1,64-64,32,32,0,0,0,32-32V224A32,32,0,0,0,896,192ZM864,388.05a128.49,128.49,0,0,0-92,91.95H252A128.49,128.49,0,0,0,160,388.05V252A128.49,128.49,0,0,0,252,160h520.1A128.49,128.49,0,0,0,864,252Z"/><path class="cls-1" d="M336,256h48a32,32,0,0,0,0-64H336a80.09,80.09,0,0,0-80,80v96a80,80,0,0,0,160,0V320a32,32,0,0,0-64,0v48a16,16,0,0,1-32,0V272A16,16,0,0,1,336,256Z"/><path class="cls-1" d="M512,256l16,0v0a32,32,0,0,0,64,0,64.07,64.07,0,0,0-64-64H512a80,80,0,0,0,0,160,16,16,0,0,1,0,32H496a32,32,0,0,0-64,0,64.07,64.07,0,0,0,64,64h16a80,80,0,0,0,0-160,16,16,0,0,1,0-32Z"/><path class="cls-1" d="M688,256l16,0v0a32,32,0,0,0,64,0,64.07,64.07,0,0,0-64-64H688a80,80,0,0,0,0,160,16,16,0,0,1,0,32H672a32,32,0,0,0-64,0,64.07,64.07,0,0,0,64,64h16a80,80,0,0,0,0-160,16,16,0,0,1,0-32Z"/></g></g></svg>