<svg xmlns="http://www.w3.org/2000/svg" viewBox="0 0 1024 832"><defs><style>.cls-1{fill:#27aae1;}</style></defs><title>chart_trend</title><g id="Layer_2" data-name="Layer 2"><g id="icon"><path class="cls-1" d="M992,768H96a32,32,0,0,1-32-32V32A32,32,0,0,0,0,32V736a96.11,96.11,0,0,0,96,96H992a32,32,0,0,0,0-64Z"/><path class="cls-1" d="M224,704H736a32,32,0,0,0,0-64H224a32,32,0,0,1-32-32V477.07a63.79,63.79,0,0,1,10.75-35.5L332.26,247.3A32,32,0,0,1,383,244L506.87,385.59A96,96,0,0,0,647,390.26l62.76-62.76a32,32,0,0,1,46.92,1.8L888.3,482.85a32.07,32.07,0,0,1,7.7,20.83V608a32,32,0,0,1-32,32H832a32,32,0,0,0,0,64h32a96.11,96.11,0,0,0,96-96V503.68a96.08,96.08,0,0,0-23.11-62.48L805.27,287.65a96,96,0,0,0-140.77-5.41L601.75,345A32,32,0,0,1,555,343.44L431.13,201.84A96,96,0,0,0,279,211.8L149.5,406.06a127.57,127.57,0,0,0-21.5,71V608A96.11,96.11,0,0,0,224,704Z"/></g></g></svg>