<svg xmlns="http://www.w3.org/2000/svg" viewBox="0 0 1024 837.4"><defs><style>.cls-1{fill:#27aae1;}</style></defs><title>chart_barchart</title><g id="Layer_2" data-name="Layer 2"><g id="icon"><path class="cls-1" d="M992,773.4H96c-18.54,0-32-15.73-32-37.4V32A32,32,0,0,0,0,32V736c0,27.65,9.76,53.2,27.49,72A93.32,93.32,0,0,0,96,837.4H992a32,32,0,0,0,0-64Z"/><path class="cls-1" d="M160,709.4h96a32,32,0,0,0,32-32v-224a32,32,0,0,0-32-32H160a32,32,0,0,0-32,32v224A32,32,0,0,0,160,709.4Zm32-224h32v160H192Z"/><path class="cls-1" d="M384,709.4h96a32,32,0,0,0,32-32v-352a32,32,0,0,0-32-32H384a32,32,0,0,0-32,32v352A32,32,0,0,0,384,709.4Zm32-352h32v288H416Z"/><path class="cls-1" d="M608,709.4h96a32,32,0,0,0,32-32v-480a32,32,0,0,0-32-32H608a32,32,0,0,0-32,32v480A32,32,0,0,0,608,709.4Zm32-480h32v416H640Z"/><path class="cls-1" d="M832,709.4h96a32,32,0,0,0,32-32V69.4a32,32,0,0,0-32-32H832a32,32,0,0,0-32,32v608A32,32,0,0,0,832,709.4Zm32-608h32v544H864Z"/></g></g></svg>