<svg xmlns="http://www.w3.org/2000/svg" viewBox="0 0 960 960"><defs><style>.cls-1{fill:#27aae1;}</style></defs><title>checklist_unchecked</title><g id="Layer_2" data-name="Layer 2"><g id="icon"><path class="cls-1" d="M864,960H96A96.11,96.11,0,0,1,0,864V96A96.11,96.11,0,0,1,96,0H864a96.11,96.11,0,0,1,96,96V864A96.11,96.11,0,0,1,864,960ZM96,64A32,32,0,0,0,64,96V864a32,32,0,0,0,32,32H864a32,32,0,0,0,32-32V96a32,32,0,0,0-32-32Z"/><path class="cls-1" d="M288,352H224a64.07,64.07,0,0,1-64-64V224a64.07,64.07,0,0,1,64-64h64a64.07,64.07,0,0,1,64,64v64A64.07,64.07,0,0,1,288,352ZM224,224v64h64l0-64Z"/><path class="cls-1" d="M288,576H224a64.07,64.07,0,0,1-64-64V448a64.07,64.07,0,0,1,64-64h64a64.07,64.07,0,0,1,64,64v64A64.07,64.07,0,0,1,288,576ZM224,448v64h64l0-64Z"/><path class="cls-1" d="M288,800H224a64.07,64.07,0,0,1-64-64V672a64.07,64.07,0,0,1,64-64h64a64.07,64.07,0,0,1,64,64v64A64.07,64.07,0,0,1,288,800ZM224,672v64h64l0-64Z"/><path class="cls-1" d="M768,288H448a32,32,0,0,1,0-64H768a32,32,0,0,1,0,64Z"/><path class="cls-1" d="M768,512H448a32,32,0,0,1,0-64H768a32,32,0,0,1,0,64Z"/><path class="cls-1" d="M768,736H448a32,32,0,0,1,0-64H768a32,32,0,0,1,0,64Z"/></g></g></svg>