<svg xmlns="http://www.w3.org/2000/svg" viewBox="0 0 1024 1024"><defs><style>.cls-1{fill:#27aae1;}</style></defs><title>circle_info</title><g id="Layer_2" data-name="Layer 2"><g id="icon"><path class="cls-1" d="M512,1024A512.12,512.12,0,0,1,312.7,40.25a512.12,512.12,0,0,1,398.6,943.5A508.73,508.73,0,0,1,512,1024Zm0-960A448.13,448.13,0,0,0,337.63,924.81,448.13,448.13,0,0,0,686.37,99.19,445.2,445.2,0,0,0,512,64Z"/><path class="cls-1" d="M512,264c-.65,0-1.32,0-2-.05s-1.31-.08-2-.15-1.31-.14-1.95-.24-1.3-.21-1.94-.34-1.28-.28-1.91-.44-1.26-.33-1.88-.52-1.25-.4-1.86-.62-1.23-.46-1.83-.7-1.2-.52-1.79-.8-1.18-.57-1.75-.88-1.15-.62-1.71-1-1.11-.68-1.65-1-1.09-.74-1.61-1.13-1.05-.79-1.55-1.2-1-.85-1.5-1.29-1-.89-1.42-1.36-.92-.94-1.36-1.42-.87-1-1.29-1.5-.81-1-1.2-1.55-.77-1.06-1.13-1.61-.71-1.1-1-1.65-.66-1.14-1-1.71-.61-1.16-.88-1.75-.55-1.19-.8-1.79-.48-1.22-.7-1.83-.43-1.23-.62-1.86-.36-1.25-.52-1.88-.31-1.28-.44-1.91-.24-1.29-.34-1.94-.18-1.3-.24-1.95-.12-1.31-.15-2-.05-1.32-.05-2,0-1.32.05-2,.08-1.31.15-2,.15-1.31.24-1.95.21-1.3.34-1.94.28-1.28.44-1.91.33-1.26.52-1.88.4-1.25.62-1.86.46-1.23.7-1.83.52-1.2.8-1.79.57-1.18.88-1.75.62-1.15,1-1.71.68-1.11,1-1.65.74-1.09,1.13-1.61.79-1.05,1.2-1.55.85-1,1.29-1.49.89-1,1.36-1.43.94-.92,1.42-1.36,1-.87,1.5-1.29,1-.81,1.55-1.2,1.06-.77,1.61-1.13,1.09-.71,1.65-1,1.14-.66,1.71-1,1.16-.6,1.75-.88,1.19-.55,1.79-.79,1.22-.49,1.83-.71,1.23-.43,1.86-.62,1.25-.36,1.88-.52,1.28-.31,1.91-.44,1.29-.24,1.94-.34,1.3-.18,1.95-.24,1.31-.12,2-.15a37,37,0,0,1,3.94,0c.65,0,1.31.08,2,.15s1.31.15,2,.24,1.3.21,1.94.34,1.28.28,1.91.44,1.26.33,1.88.52,1.25.4,1.86.62,1.23.46,1.83.71,1.2.51,1.79.79,1.18.57,1.75.88,1.15.63,1.71,1,1.11.68,1.65,1,1.09.74,1.61,1.13,1.05.79,1.55,1.2,1,.85,1.49,1.29,1,.89,1.43,1.36.92.94,1.36,1.43.87,1,1.29,1.49.81,1,1.2,1.55.77,1.06,1.13,1.61.71,1.1,1,1.65.66,1.14,1,1.71.6,1.16.88,1.75.55,1.19.79,1.79.49,1.22.71,1.83.43,1.23.62,1.86.36,1.25.52,1.88.31,1.28.44,1.91.24,1.29.34,1.94.18,1.3.24,1.95.12,1.31.15,2,0,1.32,0,2,0,1.32,0,2-.08,1.31-.15,2-.15,1.31-.24,1.95-.22,1.3-.34,1.94-.28,1.28-.44,1.91-.33,1.26-.52,1.88-.4,1.25-.62,1.86-.46,1.23-.71,1.83-.51,1.2-.79,1.79-.57,1.18-.88,1.75-.63,1.15-1,1.71-.68,1.11-1,1.65-.74,1.09-1.13,1.61-.79,1.05-1.2,1.55-.85,1-1.29,1.5-.89,1-1.36,1.42-.94.92-1.43,1.36-1,.87-1.49,1.29-1,.81-1.55,1.2-1.06.77-1.61,1.13-1.1.71-1.65,1-1.14.66-1.71,1-1.16.61-1.75.88-1.19.55-1.79.8-1.22.48-1.83.7-1.23.43-1.86.62-1.25.36-1.88.52-1.28.31-1.91.44-1.29.24-1.94.34-1.3.18-2,.24-1.31.12-2,.15S512.65,264,512,264Z"/><path class="cls-1" d="M512,832a32,32,0,0,1-32-32V352a32,32,0,0,1,64,0V800A32,32,0,0,1,512,832Z"/></g></g></svg>