<svg xmlns="http://www.w3.org/2000/svg" viewBox="0 0 839.77 839.67"><defs><style>.cls-1{fill:#27aae1;}</style></defs><title>close</title><g id="Layer_2" data-name="Layer 2"><g id="icon"><path class="cls-1" d="M739.88,839.67a99.6,99.6,0,0,1-70.63-29.21l-16-16a32,32,0,0,1,45.26-45.25l16,16a35.89,35.89,0,0,0,50.75-50.75l-272-272a32,32,0,0,1,0-45.25l272-272a35.88,35.88,0,1,0-50.74-50.75l-272,272a32,32,0,0,1-45.26,0l-272-272a35.88,35.88,0,0,0-50.74,50.75l272,272a32,32,0,0,1,0,45.25l-272,272a35.88,35.88,0,0,0,50.74,50.75l272-272a32,32,0,0,1,45.26,0l192,192a32,32,0,1,1-45.26,45.25L419.88,561.09,170.51,810.46A99.88,99.88,0,1,1,29.26,669.21L278.63,419.84,29.25,170.46A99.88,99.88,0,0,1,170.51,29.21L419.88,278.58,669.25,29.21A99.88,99.88,0,1,1,810.51,170.46L561.14,419.84,810.51,669.21a99.84,99.84,0,0,1-70.63,170.46Z"/></g></g></svg>