<svg xmlns="http://www.w3.org/2000/svg" viewBox="0 0 1024.56 644.65"><defs><style>.cls-1{fill:#27aae1;}</style></defs><title>cloud_download</title><g id="Layer_2" data-name="Layer 2"><g id="icon"><path class="cls-1" d="M968.44,306.08a197.85,197.85,0,0,0-108.72-57.54A299.18,299.18,0,0,0,320.3,126.85a136.72,136.72,0,0,0-55.95-12C189.17,114.83,128,176,128,251.18q0,4.27.26,8.52A199,199,0,0,0,0,445.69c0,109.7,89.25,199,199,199h.29l121-1.12a32,32,0,0,0-.58-64l-120.9,1.12C124.46,580.57,64,520.05,64,445.69A135,135,0,0,1,171.24,313.58a32,32,0,0,0,24-40.84,72.43,72.43,0,0,1,69.09-93.91A71.49,71.49,0,0,1,310.3,195.3,32,32,0,0,0,358.69,186a235.15,235.15,0,0,1,440.55,94.23A32,32,0,0,0,830.1,309.7,135,135,0,0,1,960.56,444.57c0,74.42-60.55,135-135,135H704a32,32,0,0,0,0,64H825.6c109.7,0,199-89.25,199-199A197.92,197.92,0,0,0,968.44,306.08Z"/><path class="cls-1" d="M544,483.53v-256a32,32,0,1,0-64,0v256a32,32,0,0,0,64,0Z"/><path class="cls-1" d="M726.63,423.42a32,32,0,0,0-45.26,0L534.63,570.16a32,32,0,0,1-45.26,0L342.63,423.42a32,32,0,0,0-45.26,45.25L444.12,615.42a96.11,96.11,0,0,0,135.76,0L726.63,468.67A32,32,0,0,0,726.63,423.42Z"/></g></g></svg>