<svg xmlns="http://www.w3.org/2000/svg" viewBox="0 0 1024.56 644.65"><defs><style>.cls-1{fill:#27aae1;}</style></defs><title>cloud</title><g id="Layer_2" data-name="Layer 2"><g id="icon"><path class="cls-1" d="M968.44,306.08a197.85,197.85,0,0,0-108.72-57.54A299.18,299.18,0,0,0,320.3,126.85a136.72,136.72,0,0,0-55.95-12C189.17,114.83,128,176,128,251.18q0,4.27.26,8.52A199,199,0,0,0,0,445.69c0,109.7,89.25,199,199,199,44.86,0,212-.34,359.36-.63l145.74-.29a32,32,0,0,0-.06-64h-.06L558.19,580c-147.38.29-314.43.63-359.23.63-74.42,0-135-60.55-135-135A135,135,0,0,1,171.24,313.58a32,32,0,0,0,24-40.84,72.43,72.43,0,0,1,69.09-93.91A71.49,71.49,0,0,1,310.3,195.3,32,32,0,0,0,358.69,186a235.15,235.15,0,0,1,440.55,94.23A32,32,0,0,0,830.1,309.7,135,135,0,0,1,960.56,444.57c0,74.42-60.55,135-135,135a32,32,0,0,0,0,64c109.7,0,199-89.25,199-199A197.92,197.92,0,0,0,968.44,306.08Z"/></g></g></svg>