<svg xmlns="http://www.w3.org/2000/svg" viewBox="0 0 970.94 768.02"><defs><style>.cls-1{fill:#27aae1;}</style></defs><title>code</title><g id="Layer_2" data-name="Layer 2"><g id="icon"><path class="cls-1" d="M252.12,182.64a32,32,0,0,0-45.26-45.26L28.12,316.13a96,96,0,0,0,0,135.76L206.86,630.64a32,32,0,0,0,45.26-45.26L73.37,406.64a32.05,32.05,0,0,1,0-45.26Z"/><path class="cls-1" d="M942.86,316.13,764.12,137.38a32,32,0,0,0-45.26,45.26L897.61,361.38a32,32,0,0,1,0,45.26L718.86,585.38a32,32,0,0,0,45.26,45.26L942.86,451.89A96.1,96.1,0,0,0,942.86,316.13Z"/><path class="cls-1" d="M624.43,1.94a32,32,0,0,0-41,19.13l-256,704a32,32,0,1,0,60.14,21.87l256-704A32,32,0,0,0,624.43,1.94Z"/></g></g></svg>