<svg xmlns="http://www.w3.org/2000/svg" viewBox="0 0 1024 832"><defs><style>.cls-1{fill:#27aae1;}</style></defs><title>coffee</title><g id="Layer_2" data-name="Layer 2"><g id="icon"><path class="cls-1" d="M352,640H608c88.22,0,160-71.78,160-160V256a64.07,64.07,0,0,0-64-64H256a64.07,64.07,0,0,0-64,64,32,32,0,0,0,64,0H704V480a96.11,96.11,0,0,1-96,96H352a96.11,96.11,0,0,1-96-96V352a32,32,0,0,0-64,0V480C192,568.22,263.78,640,352,640Z"/><path class="cls-1" d="M832,448a32,32,0,0,0,0,64c88.22,0,160-71.78,160-160a96.11,96.11,0,0,0-96-96H832a32,32,0,0,0,0,64h64a32,32,0,0,1,32,32A96.11,96.11,0,0,1,832,448Z"/><path class="cls-1" d="M1020.21,688.9A32,32,0,0,0,992,672H896a32,32,0,0,0,0,64h20.27a183.27,183.27,0,0,1-103.65,32H211.38a183.27,183.27,0,0,1-103.65-32H800a32,32,0,0,0,0-64H32A32,32,0,0,0,5.37,721.75,247.1,247.1,0,0,0,211.38,832H812.62a247.1,247.1,0,0,0,206-110.25A32,32,0,0,0,1020.21,688.9Z"/><path class="cls-1" d="M379.38,160a32,32,0,0,0,23.26-54A118.38,118.38,0,0,1,408,94.31C412.66,85,418.45,73.41,420.13,60c2.36-18.88-3.9-36.38-18.12-50.6A32,32,0,0,0,356.12,54a118.38,118.38,0,0,1-5.36,11.71C346.1,75,340.31,86.59,338.63,100c-2.36,18.88,3.91,36.38,18.12,50.6A31.9,31.9,0,0,0,379.38,160Z"/><path class="cls-1" d="M480,160a32,32,0,0,0,23.26-54,118.38,118.38,0,0,1,5.36-11.71C513.28,85,519.07,73.41,520.75,60c2.36-18.88-3.9-36.38-18.12-50.6A32,32,0,0,0,456.74,54a118.38,118.38,0,0,1-5.36,11.71C446.72,75,440.93,86.59,439.25,100c-2.36,18.88,3.9,36.38,18.12,50.6A31.9,31.9,0,0,0,480,160Z"/><path class="cls-1" d="M580.62,160a32,32,0,0,0,23.26-54,118.38,118.38,0,0,1,5.36-11.71C613.9,85,619.69,73.41,621.37,60c2.36-18.88-3.91-36.38-18.12-50.6A32,32,0,0,0,557.36,54,118.38,118.38,0,0,1,552,65.69C547.34,75,541.55,86.59,539.87,100c-2.36,18.88,3.9,36.38,18.12,50.6A31.9,31.9,0,0,0,580.62,160Z"/></g></g></svg>