<svg xmlns="http://www.w3.org/2000/svg" viewBox="0 0 1024 768"><defs><style>.cls-1{fill:#27aae1;}</style></defs><title>credit_card</title><g id="Layer_2" data-name="Layer 2"><g id="icon"><path class="cls-1" d="M992,160a32,32,0,0,0,32-32V96A96.11,96.11,0,0,0,928,0H96A96.11,96.11,0,0,0,0,96V224a32,32,0,0,0,32,32H960V672a32,32,0,0,1-32,32H96a32,32,0,0,1-32-32V320a32,32,0,0,0-64,0V672a96.11,96.11,0,0,0,96,96H928a96.11,96.11,0,0,0,96-96V224a32,32,0,0,0-32-32H64V96A32,32,0,0,1,96,64H928a32,32,0,0,1,32,32v32A32,32,0,0,0,992,160Z"/><path class="cls-1" d="M160,640H352a32,32,0,0,0,0-64H160a32,32,0,0,0,0,64Z"/><path class="cls-1" d="M160,544H480a32,32,0,0,0,0-64H160a32,32,0,0,0,0,64Z"/></g></g></svg>