<svg xmlns="http://www.w3.org/2000/svg" viewBox="0 0 945 874.06"><defs><style>.cls-1{fill:#27aae1;}</style></defs><title>diamond</title><g id="Layer_2" data-name="Layer 2"><g id="icon"><path class="cls-1" d="M933.05,218.51,805.68,40.2A96.19,96.19,0,0,0,727.57,0H217.44a96.19,96.19,0,0,0-78.12,40.2L12,218.51a63.84,63.84,0,0,0,.55,75.16L421,848a64,64,0,0,0,103,0L932.49,293.67A63.84,63.84,0,0,0,933.05,218.51ZM288.07,288,405.93,719.7,87.83,288Zm66.34,0H590.59L472.5,720.55Zm302.53,0H857.17L539.07,719.7ZM191.4,77.4a32,32,0,0,1,26-13.4H727.57a32,32,0,0,1,26,13.4L858.32,224H86.68Z"/></g></g></svg>