<svg xmlns="http://www.w3.org/2000/svg" viewBox="0 0 960 1024"><defs><style>.cls-1{fill:#27aae1;}</style></defs><title>door_opened</title><g id="Layer_2" data-name="Layer 2"><g id="icon"><path class="cls-1" d="M544,1024H32a32,32,0,0,1,0-64H544a32,32,0,0,0,32-32V74.42L192,184.14V896a32,32,0,0,1-64,0V184.14a64.27,64.27,0,0,1,46.42-61.54L599.21,1.23A32,32,0,0,1,640,32V928A96.11,96.11,0,0,1,544,1024Z"/><path class="cls-1" d="M928,1024H704a32,32,0,0,1,0-64H928a32,32,0,0,1,0,64Z"/><ellipse class="cls-1" cx="512" cy="512" rx="32" ry="48"/><path class="cls-1" d="M800,928a32,32,0,0,1-32-32V192H704a32,32,0,0,1,0-64h96a32,32,0,0,1,32,32V896A32,32,0,0,1,800,928Z"/></g></g></svg>