<svg xmlns="http://www.w3.org/2000/svg" viewBox="0 0 960 933.45"><defs><style>.cls-1{fill:#27aae1;}</style></defs><title>edit</title><g id="Layer_2" data-name="Layer 2"><g id="icon"><path class="cls-1" d="M258.29,537.56l-64,160a32,32,0,0,0,41.59,41.6l160-64a32,32,0,0,0,10.75-52.34l-96-96a32,32,0,0,0-52.34,10.74Zm41.4,68.83,27.37,27.37L281.44,652Z"/><path class="cls-1" d="M950.63,78.82,899.88,28.07a96.1,96.1,0,0,0-135.76,0L329.37,462.82a32,32,0,0,0,0,45.25l96,96a32,32,0,0,0,45.26,0l416-416a32,32,0,0,0-45.26-45.25L448,536.19l-50.75-50.74L809.37,73.33a32,32,0,0,1,45.26,0l50.74,50.74a32,32,0,1,0,45.26-45.25Z"/><path class="cls-1" d="M832,325.45a32,32,0,0,0-32,32v416a96.11,96.11,0,0,1-96,96H160a96.11,96.11,0,0,1-96-96v-544a96.11,96.11,0,0,1,96-96H576a32,32,0,1,0,0-64H160c-88.22,0-160,71.77-160,160v544c0,88.22,71.78,160,160,160H704c88.22,0,160-71.78,160-160v-416A32,32,0,0,0,832,325.45Z"/></g></g></svg>