<svg xmlns="http://www.w3.org/2000/svg" viewBox="0 0 960 960"><defs><style>.cls-1{fill:#27aae1;}</style></defs><title>export</title><g id="Layer_2" data-name="Layer 2"><g id="icon"><path class="cls-1" d="M832,352a32,32,0,0,0-32,32V800a96.11,96.11,0,0,1-96,96H160a96.11,96.11,0,0,1-96-96V256a96.11,96.11,0,0,1,96-96H576a32,32,0,0,0,0-64H160C71.78,96,0,167.78,0,256V800c0,88.22,71.78,160,160,160H704c88.22,0,160-71.78,160-160V384A32,32,0,0,0,832,352Z"/><path class="cls-1" d="M864,0H640a32,32,0,0,0,0,64H864a32,32,0,0,1,32,32V320a32,32,0,0,0,64,0V96A96.11,96.11,0,0,0,864,0Z"/><path class="cls-1" d="M361.37,598.63a32,32,0,0,0,45.26,0l448-448a32,32,0,0,0-45.26-45.26l-448,448A32,32,0,0,0,361.37,598.63Z"/></g></g></svg>