<svg xmlns="http://www.w3.org/2000/svg" viewBox="0 0 909.4 522.17"><defs><style>.cls-1{fill:#27aae1;}</style></defs><title>eye</title><g id="Layer_2" data-name="Layer 2"><g id="icon"><circle class="cls-1" cx="467.78" cy="261.08" r="160"/><path class="cls-1" d="M858.47,286.89,751.63,365.24a479,479,0,0,1-136.22,69.7,479.71,479.71,0,0,1-147.63,23.23,479.73,479.73,0,0,1-147.64-23.23,479,479,0,0,1-136.22-69.7L77.08,286.89a32,32,0,0,1,0-51.61l106.84-78.35a479.78,479.78,0,0,1,567.71,0l106.84,78.35a32,32,0,1,0,37.85-51.61L789.48,105.32a543.78,543.78,0,0,0-643.41,0L39.23,183.67a96,96,0,0,0,0,154.83l106.84,78.35a542.91,542.91,0,0,0,154.39,79,543.59,543.59,0,0,0,167.32,26.33,543.57,543.57,0,0,0,167.31-26.33,542.91,542.91,0,0,0,154.39-79L896.32,338.5a32,32,0,0,0-37.85-51.61Z"/></g></g></svg>