<svg xmlns="http://www.w3.org/2000/svg" viewBox="0 0 909.4 768"><defs><style>.cls-1{fill:#27aae1;}</style></defs><title>eye_blind</title><g id="Layer_2" data-name="Layer 2"><g id="icon"><path class="cls-1" d="M858.47,409.81,751.63,488.16a479.35,479.35,0,0,1-283.85,92.92,483.2,483.2,0,0,1-60-3.75,32,32,0,0,0-8,63.5,548,548,0,0,0,68,4.25,543.35,543.35,0,0,0,321.7-105.31l106.84-78.35a32,32,0,1,0-37.85-51.61Z"/><path class="cls-1" d="M161.77,550.86a32,32,0,1,0,36-52.9c-4.65-3.18-9.32-6.47-13.86-9.8L77.08,409.8a32,32,0,0,1,0-51.6l106.84-78.36a480.33,480.33,0,0,1,343.86-89.17,32,32,0,1,0,8-63.5,543.65,543.65,0,0,0-389.7,101.06L39.23,306.59a96,96,0,0,0,0,154.82l106.85,78.36C151.22,543.54,156.5,547.27,161.77,550.86Z"/><path class="cls-1" d="M773.78,217.14a32,32,0,0,0-36,52.91c4.65,3.16,9.31,6.45,13.86,9.79L858.47,358.2a32,32,0,0,0,37.85-51.61L789.48,228.23C784.32,224.45,779,220.72,773.78,217.14Z"/><path class="cls-1" d="M842.4,9.37a32,32,0,0,0-45.25,0l-704,704a32,32,0,0,0,45.25,45.26l704-704A32,32,0,0,0,842.4,9.37Z"/></g></g></svg>