<svg xmlns="http://www.w3.org/2000/svg" viewBox="0 0 832 1024"><defs><style>.cls-1{fill:#27aae1;}</style></defs><title>file_unknow</title><g id="Layer_2" data-name="Layer 2"><g id="icon"><path class="cls-1" d="M800,384a32,32,0,0,0-32,32V928a32,32,0,0,1-32,32H96a32,32,0,0,1-32-32V96A32,32,0,0,1,96,64H480V256a96.11,96.11,0,0,0,96,96H800a32,32,0,0,0,22.63-54.63l-192-192a32,32,0,0,0-45.26,45.26L722.75,288H576a32,32,0,0,1-32-32V64A64.07,64.07,0,0,0,480,0H96A96.11,96.11,0,0,0,0,96V928a96.11,96.11,0,0,0,96,96H736a96.11,96.11,0,0,0,96-96V416A32,32,0,0,0,800,384Z"/><path class="cls-1" d="M455.56,826.12c-.1-.65-.22-1.3-.34-1.94s-.28-1.28-.44-1.91-.33-1.26-.52-1.89-.4-1.24-.62-1.85-.46-1.23-.71-1.83-.51-1.2-.79-1.79-.57-1.18-.88-1.75-.63-1.15-1-1.71-.68-1.11-1-1.66-.74-1.08-1.13-1.6-.79-1.05-1.21-1.55-.84-1-1.28-1.5-.89-1-1.36-1.43-.94-.92-1.43-1.35-1-.87-1.49-1.29-1-.82-1.55-1.2-1.06-.77-1.61-1.13-1.1-.71-1.66-1-1.13-.66-1.7-1-1.16-.6-1.75-.87-1.19-.55-1.79-.8-1.22-.48-1.83-.7-1.24-.43-1.86-.62-1.25-.36-1.88-.52-1.28-.31-1.92-.44-1.28-.24-1.93-.34-1.3-.18-1.95-.24-1.31-.12-2-.15c-1.31-.06-2.64-.06-3.94,0-.65,0-1.31.08-2,.15s-1.31.15-1.95.24-1.3.22-1.94.34-1.28.28-1.91.44-1.26.33-1.89.52-1.24.4-1.85.62-1.23.46-1.83.7-1.2.52-1.79.8-1.18.57-1.75.87-1.15.63-1.71,1-1.11.68-1.66,1-1.08.74-1.6,1.13-1.05.79-1.55,1.2-1,.85-1.5,1.29-1,.89-1.43,1.35-.92.95-1.35,1.43-.87,1-1.29,1.5-.81,1-1.2,1.55-.77,1.06-1.13,1.6-.71,1.1-1,1.66-.66,1.14-1,1.71-.6,1.16-.88,1.75-.55,1.19-.79,1.79-.49,1.21-.71,1.83-.43,1.23-.62,1.85-.36,1.26-.52,1.89-.31,1.28-.44,1.91-.24,1.29-.34,1.94-.18,1.3-.24,2-.12,1.31-.15,2-.05,1.32-.05,2,0,1.32.05,2,.08,1.31.15,2,.15,1.31.24,2,.22,1.3.34,1.93.28,1.28.44,1.92.33,1.26.52,1.88.4,1.25.62,1.86.46,1.23.71,1.83.51,1.2.79,1.79.57,1.17.88,1.75.63,1.15,1,1.7.68,1.12,1,1.66.74,1.09,1.13,1.61.79,1.05,1.2,1.55.85,1,1.29,1.49.89,1,1.35,1.43,1,.92,1.43,1.36,1,.87,1.5,1.28,1,.82,1.55,1.21,1.06.77,1.6,1.13,1.1.71,1.66,1,1.14.66,1.71,1,1.16.6,1.75.88,1.19.55,1.79.79,1.21.49,1.83.71,1.23.43,1.85.62,1.26.36,1.89.52,1.28.31,1.91.44,1.29.24,1.94.34,1.3.18,1.95.24,1.31.12,2,.15,1.32,0,2,0,1.32,0,2,0,1.31-.08,2-.15,1.31-.15,1.95-.24,1.3-.22,1.93-.34,1.29-.28,1.92-.44,1.26-.33,1.88-.52,1.25-.4,1.86-.62,1.23-.46,1.83-.71,1.2-.51,1.79-.79,1.17-.57,1.75-.88,1.15-.63,1.7-1,1.12-.68,1.66-1,1.09-.74,1.61-1.13,1.05-.79,1.55-1.21,1-.84,1.49-1.28,1-.89,1.43-1.36.92-.94,1.36-1.43.87-1,1.28-1.49.82-1,1.21-1.55.77-1.06,1.13-1.61.71-1.1,1-1.66.66-1.13,1-1.7.6-1.17.88-1.75.55-1.19.79-1.79.49-1.22.71-1.83.43-1.24.62-1.86.36-1.25.52-1.88.31-1.28.44-1.92.24-1.28.34-1.93.18-1.3.24-2,.12-1.31.15-2,.05-1.32.05-2,0-1.32-.05-2-.08-1.31-.15-2S455.65,826.76,455.56,826.12Z"/><path class="cls-1" d="M475.9,625A128.35,128.35,0,1,0,287.66,511.48a32,32,0,0,0,64,0A64.34,64.34,0,1,1,446,568.42c-38.24,20.21-62,60-62,103.73v42.71a32,32,0,1,0,64,0V672.15A53,53,0,0,1,475.9,625Z"/></g></g></svg>