<svg xmlns="http://www.w3.org/2000/svg" viewBox="0 0 960 960"><defs><style>.cls-1{fill:#27aae1;}</style></defs><title>file_excel</title><g id="Layer_2" data-name="Layer 2"><g id="icon"><path class="cls-1" d="M564.44,7.38A32,32,0,0,0,538.1.55l-512,96A32,32,0,0,0,0,128V832a32,32,0,0,0,26.1,31.45l512,96A32,32,0,0,0,576,928V32A32,32,0,0,0,564.44,7.38ZM512,889.44l-448-84V154.56l448-84Z"/><path class="cls-1" d="M928,64H640a32,32,0,0,0,0,64H896V832H640a32,32,0,0,0,0,64H928a32,32,0,0,0,32-32V96A32,32,0,0,0,928,64Z"/><path class="cls-1" d="M173.64,619.69q0,12.3,6.94,18.75t17.48,6.44A30.26,30.26,0,0,0,210,642.73a27.13,27.13,0,0,0,8.79-5.86,52.19,52.19,0,0,0,6.35-7.61q2.64-3.91,8.89-13.67l53.51-81.65,50.39,79.3Q347.47,627.9,351,633a29.28,29.28,0,0,0,9.18,8.49A26.36,26.36,0,0,0,374,644.88a28,28,0,0,0,13.67-3.32,23.91,23.91,0,0,0,9.37-9,24.3,24.3,0,0,0,3.32-12.5,36.94,36.94,0,0,0-3.71-15.33,154.88,154.88,0,0,0-11.91-20.41L324,490.78l56.44-84.37q15-22.47,15-35.55a20.67,20.67,0,0,0-6.93-15.53q-6.94-6.54-17.88-6.54a25.83,25.83,0,0,0-10.64,2,24.89,24.89,0,0,0-8.3,6.15,79.48,79.48,0,0,0-7.72,10.35q-4,6.26-9.66,15l-45.9,69.53-43-69.53Q233.61,363,226.87,355.92T208,348.79a25.87,25.87,0,0,0-17.87,6.54q-7.32,6.56-7.33,14.75a41.56,41.56,0,0,0,3.81,16.7,165.64,165.64,0,0,0,11.43,20.8l53.9,83.2L187.9,584.34Q173.65,605.23,173.64,619.69Z"/><rect class="cls-1" x="608" y="192" width="64" height="96" rx="16" ry="16"/><rect class="cls-1" x="704" y="192" width="160" height="96" rx="16" ry="16"/><rect class="cls-1" x="608" y="312" width="64" height="96" rx="16" ry="16"/><rect class="cls-1" x="704" y="312" width="160" height="96" rx="16" ry="16"/><rect class="cls-1" x="608" y="672" width="64" height="96" rx="16" ry="16"/><rect class="cls-1" x="704" y="672" width="160" height="96" rx="16" ry="16"/><rect class="cls-1" x="608" y="552" width="64" height="96" rx="16" ry="16"/><rect class="cls-1" x="704" y="552" width="160" height="96" rx="16" ry="16"/><rect class="cls-1" x="608" y="432" width="64" height="96" rx="16" ry="16"/><rect class="cls-1" x="704" y="432" width="160" height="96" rx="16" ry="16"/></g></g></svg>