<svg xmlns="http://www.w3.org/2000/svg" viewBox="0 0 832 1024"><defs><style>.cls-1{fill:#27aae1;}</style></defs><title>file_png</title><g id="Layer_2" data-name="Layer 2"><g id="icon"><path class="cls-1" d="M800,384a32,32,0,0,0-32,32V928a32,32,0,0,1-32,32H96a32,32,0,0,1-32-32V96A32,32,0,0,1,96,64H480V256a96.11,96.11,0,0,0,96,96H800a32,32,0,0,0,22.63-54.63l-192-192a32,32,0,0,0-45.26,45.26L722.75,288H576a32,32,0,0,1-32-32V64A64.07,64.07,0,0,0,480,0H96A96.11,96.11,0,0,0,0,96V928a96.11,96.11,0,0,0,96,96H736a96.11,96.11,0,0,0,96-96V416A32,32,0,0,0,800,384Z"/><path class="cls-1" d="M254.15,629.48a61.9,61.9,0,0,0-24.72-13.23c-9.42-2.69-22.33-4-39.46-4H134.16c-10.83,0-19,2.53-24.35,7.5s-8.19,13.2-8.19,24.16V809.44c0,9.83,2.46,17.54,7.3,22.9,5,5.52,11.54,8.32,19.53,8.32a25,25,0,0,0,19.22-8.36c5-5.42,7.46-13.21,7.46-23.15V753.36H190c27.75,0,49.08-6.09,63.42-18.09,14.6-12.22,22-30.24,22-53.56a78.48,78.48,0,0,0-5.34-29.56A60,60,0,0,0,254.15,629.48ZM216.86,698.8c-3,4.05-7.31,6.91-13.21,8.75-6.37,2-14.52,3-24.22,3h-24.3V654.92h24.3c22.27,0,31.28,4.33,34.92,8,4.68,5,7,11.47,7,19.68C221.3,689.36,219.81,694.82,216.86,698.8Z"/><path class="cls-1" d="M466.83,608.59c-7.55,0-13.68,2.68-18.22,8-4.35,5.06-6.56,12.44-6.56,21.93v111.1L367.61,637q-3.51-5.55-6.8-10.68a58.16,58.16,0,0,0-7.08-9.14A29.3,29.3,0,0,0,344.9,611a29,29,0,0,0-12.1-2.36,30.19,30.19,0,0,0-16.64,5,28.71,28.71,0,0,0-11.12,13l-.05.12c-1.8,4.64-2.68,10.65-2.68,18.38V810.76c0,9.32,2.29,16.66,6.8,21.82,4.68,5.36,10.93,8.08,18.56,8.08A23.77,23.77,0,0,0,346,832.72c4.65-5.12,7-12.51,7-22v-109l72.41,111,.06.09c2.34,3.41,4.72,6.82,7.09,10.12a57.34,57.34,0,0,0,8.35,9.39,31.87,31.87,0,0,0,10.43,6.32,36,36,0,0,0,12.24,2c9.33,0,16.54-3,21.42-8.87,4.66-5.62,7-13.82,7-24.4V638.49c0-9.5-2.23-16.88-6.64-22C480.81,611.26,474.56,608.59,466.83,608.59Z"/><path class="cls-1" d="M591.12,670.67a50.85,50.85,0,0,1,18.49-13.75,61.91,61.91,0,0,1,24.94-4.78c9,0,16.39,1.32,22,3.92a39.33,39.33,0,0,1,13.34,9.58,169.59,169.59,0,0,1,13.2,18.47l.19.28a25.54,25.54,0,0,0,9,7.63,24.67,24.67,0,0,0,11.28,2.74,25.34,25.34,0,0,0,18-7.16A23.5,23.5,0,0,0,729.2,670c0-5.89-2-12.55-5.87-19.8a70,70,0,0,0-16.85-20.06c-7.37-6.23-17-11.43-28.69-15.48s-25.07-6.06-40-6.06c-18.09,0-34.55,2.69-48.9,8a101.87,101.87,0,0,0-37.11,23.35,99.45,99.45,0,0,0-23.14,37.15c-5.15,14.34-7.77,30.34-7.77,47.54,0,17.51,2.7,33.62,8,47.88a102.87,102.87,0,0,0,23.18,36.93,100.19,100.19,0,0,0,36.51,23.29c14.08,5.26,29.85,7.93,46.87,7.93a157,157,0,0,0,40.56-5,179.81,179.81,0,0,0,38.59-15.82,61.19,61.19,0,0,0,12-8.32,25.85,25.85,0,0,0,7.3-11c1.26-3.82,1.86-8.62,1.86-14.67V744.7c0-8.55-1.56-14.94-4.78-19.57A22.31,22.31,0,0,0,718,716a68.4,68.4,0,0,0-16.62-1.76H652c-7.21,0-13.09,2-17.49,6a20.18,20.18,0,0,0-6.85,15.58c0,9.63,4.73,14.43,8.69,16.76,5,2.93,11.82,4.35,20.92,4.35H686v26.85a136.74,136.74,0,0,1-23.31,9.5A94,94,0,0,1,635.73,797c-19.35,0-33.94-6.09-44.61-18.6S575,747.31,575,723.46a102,102,0,0,1,4.24-30.31A63.24,63.24,0,0,1,591.12,670.67Z"/></g></g></svg>