<svg xmlns="http://www.w3.org/2000/svg" viewBox="0 0 960 960"><defs><style>.cls-1{fill:#27aae1;}</style></defs><title>file_s</title><g id="Layer_2" data-name="Layer 2"><g id="icon"><path class="cls-1" d="M608,960H96A96.11,96.11,0,0,1,0,864V96A96.11,96.11,0,0,1,96,0H608a96.11,96.11,0,0,1,96,96V864A96.11,96.11,0,0,1,608,960ZM96,64A32,32,0,0,0,64,96V864a32,32,0,0,0,32,32H608a32,32,0,0,0,32-32V96a32,32,0,0,0-32-32Z"/><path class="cls-1" d="M768,951.44a32,32,0,0,1-16-59.7A32.16,32.16,0,0,0,768,864V96a32.16,32.16,0,0,0-16-27.74,32,32,0,1,1,32-55.4A96.33,96.33,0,0,1,832,96V864a96.33,96.33,0,0,1-48,83.14A31.8,31.8,0,0,1,768,951.44Z"/><path class="cls-1" d="M896,951.44a32,32,0,0,1-16-59.7A32.16,32.16,0,0,0,896,864V96a32.16,32.16,0,0,0-16-27.74,32,32,0,1,1,32-55.4A96.33,96.33,0,0,1,960,96V864a96.33,96.33,0,0,1-48,83.14A31.8,31.8,0,0,1,896,951.44Z"/><path class="cls-1" d="M544,256H160a32,32,0,0,1,0-64H544a32,32,0,0,1,0,64Z"/><path class="cls-1" d="M544,384H160a32,32,0,0,1,0-64H544a32,32,0,0,1,0,64Z"/><path class="cls-1" d="M544,512H160a32,32,0,0,1,0-64H544a32,32,0,0,1,0,64Z"/><path class="cls-1" d="M544,640H160a32,32,0,0,1,0-64H544a32,32,0,0,1,0,64Z"/><path class="cls-1" d="M480,768H160a32,32,0,0,1,0-64H480a32,32,0,0,1,0,64Z"/></g></g></svg>