<svg xmlns="http://www.w3.org/2000/svg" viewBox="0 0 832 1024"><defs><style>.cls-1{fill:#27aae1;}</style></defs><title>file_keynote</title><g id="Layer_2" data-name="Layer 2"><g id="icon"><path class="cls-1" d="M800,384a32,32,0,0,0-32,32V928a32,32,0,0,1-32,32H96a32,32,0,0,1-32-32V96A32,32,0,0,1,96,64H480V256a96.11,96.11,0,0,0,96,96H800a32,32,0,0,0,22.63-54.63l-192-192a32,32,0,0,0-45.26,45.26L722.75,288H576a32,32,0,0,1-32-32V64A64.07,64.07,0,0,0,480,0H96A96.11,96.11,0,0,0,0,96V928a96.11,96.11,0,0,0,96,96H736a96.11,96.11,0,0,0,96-96V416A32,32,0,0,0,800,384Z"/><path class="cls-1" d="M167.35,136.79q-7.09-7.59-18.54-7.6-11.62,0-18.37,7.69T123.69,160V346.23q0,12,.51,18.29a30.17,30.17,0,0,0,2.9,11.11,23.91,23.91,0,0,0,9.23,9.22,24.81,24.81,0,0,0,12.48,3.42q11.28,0,18.45-7.6t7.18-23.33V305.56L216,265.74,276,358q3.59,6.15,8.2,13.68a38.87,38.87,0,0,0,11.28,12q6.66,4.53,17.26,4.53,11.28,0,17.86-6.15a19.27,19.27,0,0,0,6.58-14.53,36.13,36.13,0,0,0-3.76-15.46,128.17,128.17,0,0,0-11.28-18.55L251,231.73l61.7-58.45q11.44-10.93,11.45-22a20.73,20.73,0,0,0-6.75-15.64q-6.75-6.4-17.69-6.41-8.37,0-13.42,3.59a91.17,91.17,0,0,0-12.21,11.11l-99.64,103.9V160Q174.44,144.41,167.35,136.79Z"/><path class="cls-1" d="M672,736a32,32,0,0,0,31.68-36.53l-32-224A32,32,0,0,0,640,448H192a32,32,0,0,0-31.68,27.47l-32,224A32,32,0,0,0,160,736H384v96H320a32,32,0,0,0,0,64H512a32,32,0,0,0,0-64H448V736ZM219.75,512h392.5L635.1,672H196.9Z"/></g></g></svg>