<svg xmlns="http://www.w3.org/2000/svg" viewBox="0 0 1009.98 832"><defs><style>.cls-1{fill:#27aae1;}</style></defs><title>glasses</title><g id="Layer_2" data-name="Layer 2"><g id="icon"><path class="cls-1" d="M1008.75,552.29l-67-399.35A183.28,183.28,0,0,0,761,0a32,32,0,0,0,0,64,119.28,119.28,0,0,1,117.63,99.53l67,399.35a25.45,25.45,0,0,1,.21,7C922,481.36,841,416,745,416,654.61,416,577.52,474,548.9,554.64a95.93,95.93,0,0,0-87.82,0C432.46,474,355.37,416,265,416c-96,0-177,65.36-200.85,153.9a25.45,25.45,0,0,1,.21-7l67-399.35A119.26,119.26,0,0,1,249,64a32,32,0,0,0,0-64A183.28,183.28,0,0,0,68.25,152.94l-67,399.35A89,89,0,0,0,58.7,650.7C71.84,752.83,159.34,832,265,832c105.86,0,193.49-79.49,206.37-181.91A32,32,0,0,0,473,640a32,32,0,0,1,64,0,32,32,0,0,0,1.63,10.09C551.5,752.51,639.13,832,745,832c105.65,0,193.15-79.17,206.29-181.3a89,89,0,0,0,57.47-98.41ZM265,768c-79.4,0-144-64.6-144-144s64.6-144,144-144,144,64.6,144,144S344.39,768,265,768Zm480,0c-79.4,0-144-64.6-144-144s64.6-144,144-144,144,64.6,144,144S824.39,768,745,768Z"/></g></g></svg>