<svg xmlns="http://www.w3.org/2000/svg" viewBox="0 0 1004.33 809.58"><defs><style>.cls-1{fill:#27aae1;}</style></defs><title>heart</title><g id="Layer_2" data-name="Layer 2"><g id="icon"><path class="cls-1" d="M937.92,66.41a226.76,226.76,0,0,0-320.67,0l-92.46,92.46a32,32,0,0,1-45.25,0L387.08,66.41A226.75,226.75,0,0,0,66.41,387.08L479.54,800.21A32,32,0,0,0,524.79,755L111.67,341.83c-63.46-63.46-63.46-166.71,0-230.16a162.74,162.74,0,0,1,230.16,0l92.45,92.45a96,96,0,0,0,135.77,0l92.45-92.45a162.74,162.74,0,0,1,230.16,0c63.46,63.45,63.46,166.7,0,230.16L575.54,659a32,32,0,0,0,45.25,45.26L937.92,387.08a226.76,226.76,0,0,0,0-320.67Z"/></g></g></svg>