<svg xmlns="http://www.w3.org/2000/svg" viewBox="0 0 1024 832"><defs><style>.cls-1{fill:#27aae1;}</style></defs><title>mail</title><g id="Layer_2" data-name="Layer 2"><g id="icon"><path class="cls-1" d="M1007.1,195.79a32,32,0,0,0-32.85,1.58L531.92,492.26a32,32,0,0,1-36.94-1L147.2,230.4a32,32,0,1,0-38.4,51.2L456.58,542.43a96.15,96.15,0,0,0,110.85,3.08L960,283.79V736a32,32,0,0,1-32,32H96a32,32,0,0,1-32-32V96A32,32,0,0,1,96,64H928a32,32,0,0,1,32,32,32,32,0,0,0,64,0A96.11,96.11,0,0,0,928,0H96A96.11,96.11,0,0,0,0,96V736a96.11,96.11,0,0,0,96,96H928a96.11,96.11,0,0,0,96-96V224A32,32,0,0,0,1007.1,195.79Z"/></g></g></svg>