<svg xmlns="http://www.w3.org/2000/svg" viewBox="0 0 960 959.96"><defs><style>.cls-1{fill:#27aae1;}</style></defs><title>mail_read</title><g id="Layer_2" data-name="Layer 2"><g id="icon"><path class="cls-1" d="M915.91,262.06l-384-246.85a96.19,96.19,0,0,0-103.82,0l-384,246.85A95.61,95.61,0,0,0,0,342.82V864a96.11,96.11,0,0,0,96,96H864a96.11,96.11,0,0,0,96-96V342.82A95.61,95.61,0,0,0,915.91,262.06ZM896,864a32,32,0,0,1-32,32H96a32,32,0,0,1-32-32V342.82A31.85,31.85,0,0,1,78.7,315.9L462.7,69a32.05,32.05,0,0,1,34.6,0l384,246.86A31.85,31.85,0,0,1,896,342.82Z"/><path class="cls-1" d="M782.7,483.41,497.3,666.88a32.09,32.09,0,0,1-34.6,0L177.3,483.41a32,32,0,1,0-34.6,53.84L428.09,720.71a96.19,96.19,0,0,0,103.82,0L817.3,537.25a32,32,0,1,0-34.6-53.84Z"/></g></g></svg>