<svg xmlns="http://www.w3.org/2000/svg" viewBox="0 0 1024 832"><defs><style>.cls-1{fill:#27aae1;}</style></defs><title>message_square_more</title><g id="Layer_2" data-name="Layer 2"><g id="icon"><path class="cls-1" d="M928,0H96A96.11,96.11,0,0,0,0,96V576a32,32,0,0,0,64,0V96A32,32,0,0,1,96,64H928a32,32,0,0,1,32,32V608a32,32,0,0,1-32,32H224a32.06,32.06,0,0,0-17.75,5.37l-192,128a32,32,0,0,0,35.5,53.26L233.69,704H928a96.11,96.11,0,0,0,96-96V96A96.11,96.11,0,0,0,928,0Z"/><path class="cls-1" d="M352,352a96,96,0,1,0-96,96A96.11,96.11,0,0,0,352,352Zm-128,0a32,32,0,1,1,32,32A32,32,0,0,1,224,352Z"/><path class="cls-1" d="M608,352a96,96,0,1,0-96,96A96.11,96.11,0,0,0,608,352Zm-128,0a32,32,0,1,1,32,32A32,32,0,0,1,480,352Z"/><path class="cls-1" d="M864,352a96,96,0,1,0-96,96A96.11,96.11,0,0,0,864,352Zm-128,0a32,32,0,1,1,32,32A32,32,0,0,1,736,352Z"/></g></g></svg>