<svg xmlns="http://www.w3.org/2000/svg" viewBox="0 0 1024.02 832.13"><defs><style>.cls-1{fill:#27aae1;}</style></defs><title>message_rounded_dialogue</title><g id="Layer_2" data-name="Layer 2"><g id="icon"><path class="cls-1" d="M747.83,491.76A288.07,288.07,0,0,0,544.14,0H288.07A288.06,288.06,0,0,0,0,288.07,287.49,287.49,0,0,0,102.43,508.34v35.79a32,32,0,0,0,64,0V492.94a32,32,0,0,0-12.78-25.58,226.17,226.17,0,0,1-65.26-77.51A224.12,224.12,0,0,1,288.07,64H544.14A224.07,224.07,0,0,1,702.58,446.51a222.61,222.61,0,0,1-158.44,65.63H320a32,32,0,0,0-20,7l-160,128a32,32,0,0,0,40,50l151.23-121H544.14A286.18,286.18,0,0,0,747.83,491.76Z"/><path class="cls-1" d="M884,775.15l-160-128a32,32,0,0,0-20-7H479.88A223,223,0,0,1,396,623.92a32,32,0,0,0-24,59.34,286.67,286.67,0,0,0,107.86,20.88h212.9L844,825.12a32,32,0,1,0,40-50Z"/><path class="cls-1" d="M916,191.21a32,32,0,1,0-40,49.93,224.25,224.25,0,0,1,59.64,276.71,226.28,226.28,0,0,1-65.26,77.51,32,32,0,0,0-12.78,25.58v51.19a32,32,0,0,0,64,0V636.34A287.57,287.57,0,0,0,1024,416.07,286.88,286.88,0,0,0,916,191.21Z"/></g></g></svg>