<svg xmlns="http://www.w3.org/2000/svg" viewBox="0 0 1024.01 832.01"><defs><style>.cls-1{fill:#27aae1;}</style></defs><title>message_square</title><g id="Layer_2" data-name="Layer 2"><g id="icon"><path class="cls-1" d="M1006.32,771.38l-128-64A32.07,32.07,0,0,0,864,704H480a32,32,0,0,1-32-32V480h96a96.11,96.11,0,0,0,96-96V352H928a32,32,0,0,1,32,32V672a32,32,0,0,0,64,0V384a96.11,96.11,0,0,0-96-96H640V96A96.11,96.11,0,0,0,544,0H96A96.11,96.11,0,0,0,0,96V384a32,32,0,0,0,64,0V96A32,32,0,0,1,96,64H544a32,32,0,0,1,32,32V384a32,32,0,0,1-32,32H160a32,32,0,0,0-14.31,3.38l-128,64a32,32,0,1,0,28.62,57.24L167.56,480H384V672a96.11,96.11,0,0,0,96,96H856.45L977.7,828.62a32,32,0,1,0,28.62-57.24Z"/></g></g></svg>