<svg xmlns="http://www.w3.org/2000/svg" viewBox="0 0 981.58 981.58"><defs><style>.cls-1{fill:#27aae1;}</style></defs><title>moon</title><g id="Layer_2" data-name="Layer 2"><g id="icon"><path class="cls-1" d="M972.21,644.53A32,32,0,0,0,936.39,638a447.58,447.58,0,0,1-501.17-91.63A448.45,448.45,0,0,1,343.58,45.19,32,32,0,0,0,301.24,2.84a512.1,512.1,0,1,0,452.82,918c12.68-6.81,25.24-14.26,37.32-22.15a32,32,0,1,0-35-53.6c-10.57,6.9-21.55,13.42-32.65,19.38A448.09,448.09,0,0,1,256,101.81,511.65,511.65,0,0,0,390,591.62,513.2,513.2,0,0,0,879.72,725.56a448.47,448.47,0,0,1-32.84,41.61,32,32,0,1,0,47.83,42.53,512.16,512.16,0,0,0,84-129.35A32,32,0,0,0,972.21,644.53Z"/></g></g></svg>