<svg xmlns="http://www.w3.org/2000/svg" viewBox="0 0 960 256"><defs><style>.cls-1{fill:#27aae1;}</style></defs><title>more_option</title><g id="Layer_2" data-name="Layer 2"><g id="icon"><path class="cls-1" d="M128,0A128,128,0,1,0,256,128,128.14,128.14,0,0,0,128,0Zm0,192a64,64,0,1,1,64-64A64.07,64.07,0,0,1,128,192Z"/><path class="cls-1" d="M480,0A128,128,0,1,0,608,128,128.14,128.14,0,0,0,480,0Zm0,192a64,64,0,1,1,64-64A64.07,64.07,0,0,1,480,192Z"/><path class="cls-1" d="M832,0A128,128,0,1,0,960,128,128.14,128.14,0,0,0,832,0Zm0,192a64,64,0,1,1,64-64A64.07,64.07,0,0,1,832,192Z"/></g></g></svg>