<svg xmlns="http://www.w3.org/2000/svg" viewBox="0 0 960 1024"><defs><style>.cls-1{fill:#27aae1;}</style></defs><title>mute</title><g id="Layer_2" data-name="Layer 2"><g id="icon"><path class="cls-1" d="M560,864a32,32,0,0,0-32,32v16a48,48,0,0,1-96,0V896a32,32,0,0,0-64,0v16a112,112,0,0,0,224,0V896A32,32,0,0,0,560,864Z"/><path class="cls-1" d="M768,768H320a32,32,0,0,0,0,64H768a32,32,0,0,0,0-64Z"/><path class="cls-1" d="M768,494.79V384a32,32,0,0,0-64,0V512a32,32,0,0,0,15.78,27.59c30.41,17.87,58.81,52.16,80,96.56C820.25,679.09,832,727.88,832,770v30a32,32,0,0,0,64,0V770c0-52.08-13.66-109.4-38.46-161.4C834.36,560,803,520.27,768,494.79Z"/><path class="cls-1" d="M950.63,41.37a32,32,0,0,0-45.26,0L720.75,226A288,288,0,0,0,576,112.42V96a96,96,0,0,0-192,0v16.42a290.09,290.09,0,0,0-130.57,93.77A286.89,286.89,0,0,0,192,384V494.79C157,520.27,125.64,560,102.46,608.6,77.66,660.6,64,717.92,64,770a62.1,62.1,0,0,0,51.63,61.12L9.37,937.37a32,32,0,0,0,45.26,45.26l896-896A32,32,0,0,0,950.63,41.37ZM178.75,768H128c.36-41.66,12.06-89.59,32.22-131.85,21.18-44.4,49.58-78.69,80-96.56A32,32,0,0,0,256,512V384A223.84,223.84,0,0,1,424,167.06a32,32,0,0,0,24-31V96a32,32,0,0,1,64,0v40.07a32,32,0,0,0,24,31A224.35,224.35,0,0,1,674.27,272.47Z"/></g></g></svg>