<svg xmlns="http://www.w3.org/2000/svg" viewBox="0 0 1024 832"><defs><style>.cls-1{fill:#27aae1;}</style></defs><title>news</title><g id="Layer_2" data-name="Layer 2"><g id="icon"><path class="cls-1" d="M960,0H256a64.07,64.07,0,0,0-64,64V704a64,64,0,0,1-128,0V192h64a32,32,0,0,0,0-64H64A64.07,64.07,0,0,0,0,192V704a128,128,0,0,0,256,0V64H960V704a64.07,64.07,0,0,1-64,64H288a32,32,0,0,0,0,64H896a128.14,128.14,0,0,0,128-128V64A64.07,64.07,0,0,0,960,0Z"/><path class="cls-1" d="M352,448H672a32,32,0,0,0,32-32V160a32,32,0,0,0-32-32H352a32,32,0,0,0-32,32V416A32,32,0,0,0,352,448Zm32-256H640V384H384Z"/><path class="cls-1" d="M768,192h96a32,32,0,0,0,0-64H768a32,32,0,0,0,0,64Z"/><path class="cls-1" d="M768,320h96a32,32,0,0,0,0-64H768a32,32,0,0,0,0,64Z"/><path class="cls-1" d="M768,448h96a32,32,0,0,0,0-64H768a32,32,0,0,0,0,64Z"/><path class="cls-1" d="M352,576H864a32,32,0,0,0,0-64H352a32,32,0,0,0,0,64Z"/><path class="cls-1" d="M352,704H864a32,32,0,0,0,0-64H352a32,32,0,0,0,0,64Z"/></g></g></svg>