<svg xmlns="http://www.w3.org/2000/svg" viewBox="0 0 960 960"><defs><style>.cls-1{fill:#27aae1;}</style></defs><title>setting</title><g id="Layer_2" data-name="Layer 2"><g id="icon"><path class="cls-1" d="M736,352a96,96,0,1,1,96-96A96.11,96.11,0,0,1,736,352Zm0-128a32,32,0,1,0,32,32A32,32,0,0,0,736,224Z"/><path class="cls-1" d="M320,576a96,96,0,1,1,96-96A96.11,96.11,0,0,1,320,576Zm0-128a32,32,0,1,0,32,32A32,32,0,0,0,320,448Z"/><path class="cls-1" d="M640,800a96,96,0,1,1,96-96A96.11,96.11,0,0,1,640,800Zm0-128a32,32,0,1,0,32,32A32,32,0,0,0,640,672Z"/><path class="cls-1" d="M864,960H96A96.11,96.11,0,0,1,0,864V96A96.11,96.11,0,0,1,96,0H864a96.11,96.11,0,0,1,96,96V864A96.11,96.11,0,0,1,864,960ZM96,64A32,32,0,0,0,64,96V864a32,32,0,0,0,32,32H864a32,32,0,0,0,32-32V96a32,32,0,0,0-32-32Z"/><path class="cls-1" d="M576,736H192a32,32,0,0,1,0-64H576a32,32,0,0,1,0,64Z"/><path class="cls-1" d="M768,736H704a32,32,0,0,1,0-64h64a32,32,0,0,1,0,64Z"/><path class="cls-1" d="M256,512H192a32,32,0,0,1,0-64h64a32,32,0,0,1,0,64Z"/><path class="cls-1" d="M800,512H384a32,32,0,0,1,0-64H800a32,32,0,0,1,0,64Z"/><path class="cls-1" d="M672,288H192a32,32,0,0,1,0-64H672a32,32,0,0,1,0,64Z"/></g></g></svg>