<svg xmlns="http://www.w3.org/2000/svg" viewBox="0 0 1024 768"><defs><style>.cls-1{fill:#27aae1;}</style></defs><title>sofa</title><g id="Layer_2" data-name="Layer 2"><g id="icon"><path class="cls-1" d="M896,288A128.14,128.14,0,0,0,768,416V704H256V416A128,128,0,0,0,0,416V736a32,32,0,0,0,32,32h96a32,32,0,0,0,0-64H64V416a64,64,0,0,1,128,0V736a32,32,0,0,0,32,32H800a32,32,0,0,0,32-32V416a64,64,0,0,1,128,0V704H896a32,32,0,0,0,0,64h96a32,32,0,0,0,32-32V416A128.14,128.14,0,0,0,896,288Z"/><path class="cls-1" d="M320,448a32,32,0,0,0,0,64H704a32,32,0,0,0,0-64Z"/><path class="cls-1" d="M128,256a32,32,0,0,0,32-32V160a96.11,96.11,0,0,1,96-96H768a96.11,96.11,0,0,1,96,96v64a32,32,0,0,0,64,0V160C928,71.78,856.22,0,768,0H256C167.78,0,96,71.78,96,160v64A32,32,0,0,0,128,256Z"/></g></g></svg>