<svg xmlns="http://www.w3.org/2000/svg" viewBox="0 0 827.74 867.84"><defs><style>.cls-1{fill:#27aae1;}</style></defs><title>spanner</title><g id="Layer_2" data-name="Layer 2"><g id="icon"><path class="cls-1" d="M763.64,288H643.88a48,48,0,0,1,0-96H763.63A64,64,0,0,0,813,87.28,239.24,239.24,0,0,0,627.88,0h-1a240,240,0,0,0-168.7,409.71A240,240,0,0,0,812.87,392.9,64,64,0,0,0,763.64,288Zm-.08,64.1A175.58,175.58,0,0,1,627.88,416c-97,0-176-78.95-176-176A175.58,175.58,0,0,1,627.14,64h.74a175.49,175.49,0,0,1,135.76,64H643.88a112,112,0,0,0,0,224H763.62v0Z"/><path class="cls-1" d="M285.25,441.37l-256,256A99.89,99.89,0,0,0,170.51,838.63l256-256A99.89,99.89,0,0,0,285.25,441.37Zm96,96-256,256a35.88,35.88,0,1,1-50.74-50.74l256-256a35.88,35.88,0,1,1,50.74,50.74Z"/></g></g></svg>