<svg xmlns="http://www.w3.org/2000/svg" viewBox="0 0 1024 896"><defs><style>.cls-1{fill:#27aae1;}</style></defs><title>stamp_checked</title><g id="Layer_2" data-name="Layer 2"><g id="icon"><path class="cls-1" d="M512,608H449.89c-2.43-1.91-11.19-10.38-19.62-38.19C423.76,548.32,416,509.75,416,448c0-32.46,7.14-71.67,14-109.58,6.56-36.06,13.34-73.34,14.38-106.69,1.33-42.79-7.27-74.68-26.29-97.47C397,108.87,363.93,96,320,96s-76.95,12.87-98.13,38.26c-19,22.79-27.62,54.68-26.29,97.47,1,33.35,7.82,70.63,14.38,106.69,6.9,37.91,14,77.12,14,109.58,0,61.75-7.76,100.32-14.27,121.81-8.43,27.81-17.19,36.28-19.62,38.19H128A128.14,128.14,0,0,0,0,736a64.07,64.07,0,0,0,64,64H480a32,32,0,0,0,0-64H64a64.07,64.07,0,0,1,64-64H512a64.07,64.07,0,0,1,64,64,32,32,0,0,0-32,32v32a32,32,0,0,1-32,32H128a31.44,31.44,0,0,1-16-4.26A32,32,0,0,0,80,883.14,96.1,96.1,0,0,0,128,896H512a96.11,96.11,0,0,0,96-96v-8.59A64,64,0,0,0,640,736,128.14,128.14,0,0,0,512,608ZM272.93,327c-10.79-59.26-23-126.43-1.92-151.7,8.45-10.13,24.93-15.26,49-15.26s40.54,5.13,49,15.26c21.09,25.27,8.87,92.44-1.92,151.7C359.66,367.67,352,409.76,352,448c0,63.11,7.62,116.79,22,155.24.6,1.61,1.23,3.2,1.86,4.76H264.1c.63-1.56,1.26-3.15,1.86-4.76,14.42-38.45,22-92.13,22-155.24C288,409.76,280.34,367.67,272.93,327Z"/><path class="cls-1" d="M649.37,438.63a32,32,0,0,0,45.26,0l192-192a32,32,0,0,0-45.26-45.26L672,370.75l-73.37-73.38a32,32,0,0,0-45.26,45.26Z"/><path class="cls-1" d="M935,89a304,304,0,0,0-447.42,19,32,32,0,1,0,48.92,41.26A240,240,0,1,1,516.33,431,32,32,0,0,0,462.07,465,303.8,303.8,0,0,0,720,608,304,304,0,0,0,935,89Z"/></g></g></svg>