<svg xmlns="http://www.w3.org/2000/svg" viewBox="0 0 933.45 933.45"><defs><style>.cls-1{fill:#27aae1;}</style></defs><title>tag</title><g id="Layer_2" data-name="Layer 2"><g id="icon"><path class="cls-1" d="M837.45,0H544a95.38,95.38,0,0,0-67.88,28.12l-448,448a96.1,96.1,0,0,0,0,135.76L238.82,822.63a32,32,0,1,0,45.25-45.26L73.33,566.63a32,32,0,0,1,0-45.26l448-448A31.79,31.79,0,0,1,544,64h293.5a32,32,0,0,1,32,32V389.49a31.78,31.78,0,0,1-9.38,22.63l-448,448a32,32,0,0,1-45.25,0,32,32,0,0,0-45.26,45.25,96.1,96.1,0,0,0,135.77,0l448-448a95.38,95.38,0,0,0,28.12-67.88V96A96.11,96.11,0,0,0,837.45,0Z"/><path class="cls-1" d="M773.45,256a96,96,0,1,0-96,96A96.11,96.11,0,0,0,773.45,256Zm-128,0a32,32,0,1,1,32,32A32,32,0,0,1,645.45,256Z"/></g></g></svg>