<svg xmlns="http://www.w3.org/2000/svg" viewBox="0 0 832 1024"><defs><style>.cls-1{fill:#27aae1;}</style></defs><title>trash</title><g id="Layer_2" data-name="Layer 2"><g id="icon"><path class="cls-1" d="M800,224H384V96a32,32,0,0,1,64,0v64a32,32,0,0,0,64,0V96a96,96,0,0,0-192,0V224H32a32,32,0,0,0,0,64H800a32,32,0,0,0,0-64Z"/><path class="cls-1" d="M736,320a32,32,0,0,0-32,32V896a64.07,64.07,0,0,1-64,64H192a64.07,64.07,0,0,1-64-64V352a32,32,0,0,0-64,0V896a128.14,128.14,0,0,0,128,128H640A128.14,128.14,0,0,0,768,896V352A32,32,0,0,0,736,320Z"/><path class="cls-1" d="M320,864V384a32,32,0,0,0-64,0V864a32,32,0,0,0,64,0Z"/><path class="cls-1" d="M576,864V384a32,32,0,0,0-64,0V864a32,32,0,0,0,64,0Z"/></g></g></svg>