<svg xmlns="http://www.w3.org/2000/svg" viewBox="0 0 832 1024"><defs><style>.cls-1{fill:#27aae1;}</style></defs><title>umbrella</title><g id="Layer_2" data-name="Layer 2"><g id="icon"><path class="cls-1" d="M799.29,254.06A416,416,0,0,0,0,416a32,32,0,0,0,32,32H384V928a32,32,0,0,1-64,0V896a32,32,0,0,0-64,0v32a96,96,0,0,0,192,0V416a32,32,0,0,0-32-32H65.43A352,352,0,0,1,664.9,167.1,349.26,349.26,0,0,1,766.57,384H512a32,32,0,0,0,0,64H800a32,32,0,0,0,32-32A413.29,413.29,0,0,0,799.29,254.06Z"/></g></g></svg>