<svg xmlns="http://www.w3.org/2000/svg" viewBox="0 0 960 960"><defs><style>.cls-1{fill:#27aae1;}</style></defs><title>zoom_in</title><g id="Layer_2" data-name="Layer 2"><g id="icon"><path class="cls-1" d="M864,0H736a32,32,0,0,0,0,64H864a32,32,0,0,1,32,32V224a32,32,0,0,0,64,0V96A96.11,96.11,0,0,0,864,0Z"/><path class="cls-1" d="M640,352a31.9,31.9,0,0,0,22.63-9.37l192-192a32,32,0,0,0-45.26-45.26l-192,192A32,32,0,0,0,640,352Z"/><path class="cls-1" d="M928,704a32,32,0,0,0-32,32V864a32,32,0,0,1-32,32H736a32,32,0,0,0,0,64H864a96.11,96.11,0,0,0,96-96V736A32,32,0,0,0,928,704Z"/><path class="cls-1" d="M832,864a32,32,0,0,0,22.63-54.63l-192-192a32,32,0,0,0-45.26,45.26l192,192A31.9,31.9,0,0,0,832,864Z"/><path class="cls-1" d="M32,256a32,32,0,0,0,32-32V96A32,32,0,0,1,96,64H224a32,32,0,0,0,0-64H96A96.11,96.11,0,0,0,0,96V224A32,32,0,0,0,32,256Z"/><path class="cls-1" d="M105.37,105.37a32,32,0,0,0,0,45.26l192,192a32,32,0,0,0,45.26-45.26l-192-192A32,32,0,0,0,105.37,105.37Z"/><path class="cls-1" d="M224,896H96a32,32,0,0,1-32-32V736a32,32,0,0,0-64,0V864a96.11,96.11,0,0,0,96,96H224a32,32,0,0,0,0-64Z"/><path class="cls-1" d="M297.37,617.37l-192,192a32,32,0,0,0,45.26,45.26l192-192a32,32,0,0,0-45.26-45.26Z"/><path class="cls-1" d="M480,352A128,128,0,1,0,608,480,128.14,128.14,0,0,0,480,352Zm0,192a64,64,0,1,1,64-64A64.07,64.07,0,0,1,480,544Z"/></g></g></svg>