<svg xmlns="http://www.w3.org/2000/svg" viewBox="0 0 960 960"><defs><style>.cls-1{fill:#27aae1;}</style></defs><title>archive</title><g id="Layer_2" data-name="Layer 2"><g id="icon"><path class="cls-1" d="M896,352a32,32,0,0,0-32,32V864a32,32,0,0,1-32,32H128a32,32,0,0,1-32-32V384a32,32,0,0,0-64,0V864a96.11,96.11,0,0,0,96,96H832a96.11,96.11,0,0,0,96-96V384A32,32,0,0,0,896,352Z"/><path class="cls-1" d="M864,0H96A96.11,96.11,0,0,0,0,96V288a32,32,0,0,0,32,32H928a32,32,0,0,0,32-32V96A96.11,96.11,0,0,0,864,0Zm32,256H64V96A32,32,0,0,1,96,64H864a32,32,0,0,1,32,32Z"/><path class="cls-1" d="M640,480a32,32,0,0,0,0-64H320a32,32,0,0,0,0,64Z"/></g></g></svg>