<svg xmlns="http://www.w3.org/2000/svg" viewBox="0 0 832 1024"><defs><style>.cls-1{fill:#27aae1;}</style></defs><title>bell</title><g id="Layer_2" data-name="Layer 2"><g id="icon"><path class="cls-1" d="M496,864a32,32,0,0,0-32,32v16a48,48,0,0,1-96,0V896a32,32,0,0,0-64,0v16a112,112,0,0,0,224,0V896A32,32,0,0,0,496,864Z"/><path class="cls-1" d="M793.54,608.6C770.36,560,739,520.27,704,494.79V384A288.09,288.09,0,0,0,512,112.42V97C512,44.18,469.5.69,417.26,0A96,96,0,0,0,320,96v16.42a290.09,290.09,0,0,0-130.57,93.77A286.89,286.89,0,0,0,128,384V494.79C93,520.27,61.64,560,38.46,608.6,13.66,660.6,0,717.92,0,770a62.07,62.07,0,0,0,62,62H704a32,32,0,0,0,0-64H64c.36-41.66,12.06-89.59,32.22-131.85,21.18-44.4,49.58-78.69,80-96.56A32,32,0,0,0,192,512V384A223.84,223.84,0,0,1,360,167.06a32,32,0,0,0,24-31V96a32,32,0,0,1,32.43-32C433.84,64.23,448,79,448,97v39.12a32,32,0,0,0,24,31A223.84,223.84,0,0,1,640,384V512a32,32,0,0,0,15.78,27.59c30.41,17.87,58.81,52.16,80,96.56C756.25,679.09,768,727.88,768,770v30a32,32,0,0,0,64,0V770C832,717.92,818.34,660.6,793.54,608.6Z"/></g></g></svg>