<svg xmlns="http://www.w3.org/2000/svg" viewBox="0 0 832 1024.02"><defs><style>.cls-1{fill:#27aae1;}</style></defs><title>bookmark</title><g id="Layer_2" data-name="Layer 2"><g id="icon"><path class="cls-1" d="M64,1024A64.14,64.14,0,0,1,0,960V96A96.11,96.11,0,0,1,96,0H736a96.11,96.11,0,0,1,96,96v32a32,32,0,0,1-64,0V96a32,32,0,0,0-32-32H96A32,32,0,0,0,64,96V960L387.38,798.27a64.31,64.31,0,0,1,57.24,0L768,960V224a32,32,0,0,1,64,0V960a64,64,0,0,1-92.62,57.24L416,855.51,92.62,1017.2A63.93,63.93,0,0,1,64,1024Z"/><path class="cls-1" d="M565.45,684a32,32,0,0,1-14.89-3.67L416,609.54,281.44,680.29A32,32,0,0,1,235,646.55l25.7-149.83L151.85,390.6A32,32,0,0,1,169.58,336L320,314.16,387.3,177.84a32,32,0,0,1,57.4,0L512,314.16,662.42,336a32,32,0,0,1,17.73,54.58L571.29,496.72,597,646.55A32,32,0,0,1,565.45,684ZM416,541.39a32,32,0,0,1,14.89,3.68L523,593.47,505.37,491a32,32,0,0,1,9.2-28.33L589.05,390,486.12,375.08A32,32,0,0,1,462,357.57l-46-93.26-46,93.26a32,32,0,0,1-24.09,17.51L243,390l74.48,72.6a32,32,0,0,1,9.2,28.33L309.05,593.47l92.06-48.4A32,32,0,0,1,416,541.39Z"/></g></g></svg>