<svg xmlns="http://www.w3.org/2000/svg" viewBox="0 0 1024 832"><defs><style>.cls-1{fill:#27aae1;}</style></defs><title>book_1</title><g id="Layer_2" data-name="Layer 2"><g id="icon"><path class="cls-1" d="M928,0H640A159.85,159.85,0,0,0,512,64.11,159.85,159.85,0,0,0,384,0H96A96.11,96.11,0,0,0,0,96V608a96.11,96.11,0,0,0,96,96H384a96.14,96.14,0,0,1,96,96,32,32,0,0,0,64,0h0a96.14,96.14,0,0,1,96-96H928a96.11,96.11,0,0,0,96-96V96A96.11,96.11,0,0,0,928,0ZM480,672.06A159.17,159.17,0,0,0,384,640H96a32,32,0,0,1-32-32V96A32,32,0,0,1,96,64H384a96.11,96.11,0,0,1,96,96ZM960,608a32,32,0,0,1-32,32H640a159.17,159.17,0,0,0-96,32.1V160a96.11,96.11,0,0,1,96-96H928a32,32,0,0,1,32,32Z"/><path class="cls-1" d="M384,128H160a32,32,0,0,0,0,64H384a32,32,0,0,0,0-64Z"/><path class="cls-1" d="M384,256H160a32,32,0,0,0,0,64H384a32,32,0,0,0,0-64Z"/><path class="cls-1" d="M384,384H160a32,32,0,0,0,0,64H384a32,32,0,0,0,0-64Z"/><path class="cls-1" d="M384,512H160a32,32,0,0,0,0,64H384a32,32,0,0,0,0-64Z"/><path class="cls-1" d="M864,128H640a32,32,0,0,0,0,64H864a32,32,0,0,0,0-64Z"/><path class="cls-1" d="M864,256H640a32,32,0,0,0,0,64H864a32,32,0,0,0,0-64Z"/><path class="cls-1" d="M864,384H640a32,32,0,0,0,0,64H864a32,32,0,0,0,0-64Z"/><path class="cls-1" d="M864,512H640a32,32,0,0,0,0,64H864a32,32,0,0,0,0-64Z"/></g></g></svg>