<svg xmlns="http://www.w3.org/2000/svg" viewBox="0 0 832 1024"><defs><style>.cls-1{fill:#27aae1;}</style></defs><title>book</title><g id="Layer_2" data-name="Layer 2"><g id="icon"><path class="cls-1" d="M800,832a32,32,0,0,0,32-32V32A32,32,0,0,0,800,0H128A128.14,128.14,0,0,0,0,128V736a32,32,0,0,0,64,0V128a64.07,64.07,0,0,1,64-64H768V768H128a128,128,0,0,0,0,256H800a32,32,0,0,0,0-64,64,64,0,0,1,0-128ZM128,960a64,64,0,0,1,0-128H689.18a127.8,127.8,0,0,0,0,128Z"/><path class="cls-1" d="M288,256a32,32,0,0,0,0-64H192a32,32,0,0,0-32,32V384a32,32,0,0,0,32,32h96a32,32,0,0,0,32-32V320a32,32,0,0,0-64,0v32H224V256Z"/><path class="cls-1" d="M384,352a32,32,0,0,0,0,64h96a32,32,0,0,0,32-32V304a32,32,0,0,0-32-32H416V256h64a32,32,0,0,0,0-64H384a32,32,0,0,0-32,32v80a32,32,0,0,0,32,32h64v16Z"/><path class="cls-1" d="M576,352a32,32,0,0,0,0,64h96a32,32,0,0,0,32-32V304a32,32,0,0,0-32-32H608V256h64a32,32,0,0,0,0-64H576a32,32,0,0,0-32,32v80a32,32,0,0,0,32,32h64v16Z"/></g></g></svg>