<svg xmlns="http://www.w3.org/2000/svg" viewBox="0 0 960 960"><defs><style>.cls-1{fill:#27aae1;}</style></defs><title>box_duplicate</title><g id="Layer_2" data-name="Layer 2"><g id="icon"><path class="cls-1" d="M864,800H256a96.11,96.11,0,0,1-96-96V96A96.11,96.11,0,0,1,256,0H864a96.11,96.11,0,0,1,96,96V704A96.11,96.11,0,0,1,864,800ZM256,64a32,32,0,0,0-32,32V704a32,32,0,0,0,32,32H864a32,32,0,0,0,32-32V96a32,32,0,0,0-32-32Z"/><path class="cls-1" d="M704,960H96A96.11,96.11,0,0,1,0,864V256a96.11,96.11,0,0,1,96-96,32,32,0,0,1,0,64,32,32,0,0,0-32,32V864a32,32,0,0,0,32,32H704a32,32,0,0,0,32-32,32,32,0,0,1,64,0A96.11,96.11,0,0,1,704,960Z"/></g></g></svg>