<svg xmlns="http://www.w3.org/2000/svg" viewBox="0 0 960.01 960"><defs><style>.cls-1{fill:#27aae1;}</style></defs><title>box_s</title><g id="Layer_2" data-name="Layer 2"><g id="icon"><path class="cls-1" d="M17.69,284.62l448,224a32,32,0,0,0,28.62,0l448-224a32,32,0,0,0,0-57.24l-448-224a32,32,0,0,0-28.62,0l-448,224a32,32,0,0,0,0,57.24ZM480,67.78,856.45,256,480,444.22,103.55,256Z"/><path class="cls-1" d="M17.69,508.62l448,224a32,32,0,0,0,28.62,0l448-224a32,32,0,0,0-28.62-57.24L480,668.22,103.55,480l70.76-35.38a32,32,0,1,0-28.62-57.24l-128,64a32,32,0,0,0,0,57.24Z"/><path class="cls-1" d="M913.69,675.38,480,892.22,103.55,704l70.76-35.38a32,32,0,0,0-28.62-57.24l-128,64a32,32,0,0,0,0,57.24l448,224a32,32,0,0,0,28.62,0l448-224a32,32,0,1,0-28.62-57.24Z"/></g></g></svg>