<svg xmlns="http://www.w3.org/2000/svg" viewBox="0 0 832 1024"><defs><style>.cls-1{fill:#27aae1;}</style></defs><title>bug</title><g id="Layer_2" data-name="Layer 2"><g id="icon"><path class="cls-1" d="M448,896V384a32,32,0,0,0-64,0V896a32,32,0,0,0,64,0Z"/><path class="cls-1" d="M288,160v32a32,32,0,0,0,64,0V160a32,32,0,0,0-64,0Z"/><path class="cls-1" d="M480,160v32a32,32,0,0,0,64,0V160a32,32,0,0,0-64,0Z"/><path class="cls-1" d="M800,512H768V352a96.18,96.18,0,0,0-65.24-90.95c-.15-1.7-.34-3.4-.52-5.1.59,0,1.17.05,1.76.05a31.9,31.9,0,0,0,22.63-9.37l32-32a32,32,0,0,0-45.26-45.26l-24.89,24.9a288.25,288.25,0,0,0-544.94,0l-24.91-24.91a32,32,0,0,0-45.26,45.26l32,32A31.9,31.9,0,0,0,128,256c.59,0,1.18,0,1.77-.05A293.67,293.67,0,0,0,128,288a32,32,0,0,0,32,32H576a32,32,0,0,0,0-64H194.25A224,224,0,0,1,640,288a32,32,0,0,0,32,32,32,32,0,0,1,32,32V672a288,288,0,1,1-576,0V384a32,32,0,0,0-64,0V512H32a32,32,0,0,0,0,64H64v96A349.73,349.73,0,0,0,88.37,800.92a31.81,31.81,0,0,0-15,8.45l-32,32a32,32,0,0,0,45.26,45.26l29.76-29.77a352.2,352.2,0,0,0,599.22,0l29.76,29.77a32,32,0,0,0,45.26-45.26l-32-32a31.81,31.81,0,0,0-15-8.45A349.73,349.73,0,0,0,768,672V576h32a32,32,0,0,0,0-64Z"/></g></g></svg>