<svg xmlns="http://www.w3.org/2000/svg" viewBox="0 0 896 1024"><defs><style>.cls-1{fill:#27aae1;}</style></defs><title>building</title><g id="Layer_2" data-name="Layer 2"><g id="icon"><path class="cls-1" d="M864,960H832V32A32,32,0,0,0,800,0H96A32,32,0,0,0,64,32V864a32,32,0,0,0,64,0V64H768V992a32,32,0,0,0,32,32h64a32,32,0,0,0,0-64Z"/><path class="cls-1" d="M672,960H384V704H512V864a32,32,0,0,0,64,0V672a32,32,0,0,0-32-32H352a32,32,0,0,0-32,32V960H32a32,32,0,0,0,0,64H672a32,32,0,0,0,0-64Z"/><path class="cls-1" d="M224,320H352a32,32,0,0,0,32-32V160a32,32,0,0,0-32-32H224a32,32,0,0,0-32,32V288A32,32,0,0,0,224,320Zm32-128h64v64H256Z"/><path class="cls-1" d="M672,128H544a32,32,0,0,0-32,32V288a32,32,0,0,0,32,32H672a32,32,0,0,0,32-32V160A32,32,0,0,0,672,128ZM640,256H576V192h64Z"/><path class="cls-1" d="M192,544a32,32,0,0,0,32,32H352a32,32,0,0,0,32-32V416a32,32,0,0,0-32-32H224a32,32,0,0,0-32,32Zm64-96h64v64H256Z"/><path class="cls-1" d="M672,384H544a32,32,0,0,0-32,32V544a32,32,0,0,0,32,32H672a32,32,0,0,0,32-32V416A32,32,0,0,0,672,384ZM640,512H576V448h64Z"/></g></g></svg>