<svg xmlns="http://www.w3.org/2000/svg" viewBox="0 0 809.84 809.94"><defs><style>.cls-1{fill:#27aae1;}</style></defs><title>cachet</title><g id="Layer_2" data-name="Layer 2"><g id="icon"><path class="cls-1" d="M478.29,542.29l-160,160A149,149,0,1,1,107.55,491.55l160-160a32,32,0,1,0-45.26-45.26l-160,160c-83,83.06-83,218.2,0,301.26a213,213,0,0,0,301.26,0l160-160a32,32,0,0,0-45.26-45.26Z"/><path class="cls-1" d="M747.55,62.29c-83.06-83-218.2-83-301.26,0l-160,160a32,32,0,0,0,0,45.26l256,256a32,32,0,0,0,45.26,0l160-160C830.6,280.49,830.6,145.35,747.55,62.29Z"/></g></g></svg>