<svg xmlns="http://www.w3.org/2000/svg" viewBox="0 0 1024 832"><defs><style>.cls-1{fill:#27aae1;}</style></defs><title>calendar_edit</title><g id="Layer_2" data-name="Layer 2"><g id="icon"><path class="cls-1" d="M800,96H928a32,32,0,0,1,32,32,32,32,0,0,0,64,0,96.11,96.11,0,0,0-96-96H800a32,32,0,0,0,0,64Z"/><path class="cls-1" d="M416,96H608a32,32,0,0,0,0-64H416a32,32,0,0,0,0,64Z"/><path class="cls-1" d="M992,192H128a32,32,0,0,0,0,64H960V736a32,32,0,0,1-32,32H96a32,32,0,0,1-32-32V128A32,32,0,0,1,96,96H224a32,32,0,0,0,0-64H96A96.11,96.11,0,0,0,0,128V736a96.11,96.11,0,0,0,96,96H928a96.11,96.11,0,0,0,96-96V224A32,32,0,0,0,992,192Z"/><path class="cls-1" d="M320,160a32,32,0,0,0,32-32V32a32,32,0,0,0-64,0v96A32,32,0,0,0,320,160Z"/><path class="cls-1" d="M704,160a32,32,0,0,0,32-32V32a32,32,0,0,0-64,0v96A32,32,0,0,0,704,160Z"/><path class="cls-1" d="M377.57,512.65a32,32,0,0,0-23.28,19.47l-64,160a32,32,0,0,0,41.59,41.59l160-64a32,32,0,0,0,10.75-52.34l-96-96A32,32,0,0,0,377.57,512.65Zm-.13,133.91,18.25-45.62,27.37,27.37Z"/><path class="cls-1" d="M668.28,361.54l45.09,45.09a32,32,0,0,0,45.26-45.26l-45.09-45.09a104.13,104.13,0,0,0-147.08,0L425.37,457.37a32,32,0,0,0,0,45.26l96,96a32,32,0,0,0,45.26,0l128-128a32,32,0,0,0-45.26-45.26L544,530.75,493.25,480,611.71,361.54A40,40,0,0,1,668.28,361.54Z"/></g></g></svg>