<svg xmlns="http://www.w3.org/2000/svg" viewBox="0 0 1024 832"><defs><style>.cls-1{fill:#27aae1;}</style></defs><title>car</title><g id="Layer_2" data-name="Layer 2"><g id="icon"><path class="cls-1" d="M895.06,341.05l-19.69-197A160,160,0,0,0,716.16,0H307.84A160,160,0,0,0,148.63,144.08l-19.69,197A224.56,224.56,0,0,0,0,544V704a32,32,0,0,0,32,32H96v64a32,32,0,0,0,32,32H256a32,32,0,0,0,32-32V736H736v64a32,32,0,0,0,32,32H896a32,32,0,0,0,32-32V736h64a32,32,0,0,0,32-32V544A224.56,224.56,0,0,0,895.06,341.05ZM212.31,150.45A96,96,0,0,1,307.84,64H716.16a96,96,0,0,1,95.53,86.45l17.13,171.39A227.56,227.56,0,0,0,800,320H224a227.56,227.56,0,0,0-28.82,1.84ZM224,768H160V736h64Zm640,0H800V736h64Zm96-96H64V544c0-88.22,71.78-160,160-160H800c88.22,0,160,71.78,160,160Z"/><path class="cls-1" d="M288,544H256a32,32,0,0,1-32-32,32,32,0,0,0-64,0,96.11,96.11,0,0,0,96,96h32a32,32,0,0,0,0-64Z"/><path class="cls-1" d="M832,480a32,32,0,0,0-32,32,32,32,0,0,1-32,32H736a32,32,0,0,0,0,64h32a96.11,96.11,0,0,0,96-96A32,32,0,0,0,832,480Z"/><path class="cls-1" d="M576,480H448a96.11,96.11,0,0,0-96,96v32a32,32,0,0,0,64,0V576a32,32,0,0,1,32-32H576a32,32,0,0,1,32,32v32a32,32,0,0,0,64,0V576A96.11,96.11,0,0,0,576,480Z"/><path class="cls-1" d="M96,352a32,32,0,0,0,32-32V224a32,32,0,0,0-32-32H32A32,32,0,0,0,0,224v32A96.11,96.11,0,0,0,96,352Z"/><path class="cls-1" d="M992,192H928a32,32,0,0,0-32,32v96a32,32,0,0,0,32,32,96.11,96.11,0,0,0,96-96V224A32,32,0,0,0,992,192Z"/></g></g></svg>