<svg xmlns="http://www.w3.org/2000/svg" viewBox="0 0 896 896"><defs><style>.cls-1{fill:#27aae1;}</style></defs><title>chart_piechart</title><g id="Layer_2" data-name="Layer 2"><g id="icon"><path class="cls-1" d="M800,448H736a32,32,0,0,0,0,64h30.57A352,352,0,0,1,167.1,728.9,352,352,0,0,1,384,129.43V384A128.14,128.14,0,0,0,512,512H640a32,32,0,0,0,0-64H512a64.07,64.07,0,0,1-64-64V96a32,32,0,0,0-32-32A416.1,416.1,0,0,0,254.07,863.29,415.87,415.87,0,0,0,832,480,32,32,0,0,0,800,448Z"/><path class="cls-1" d="M865.81,234.52A383.71,383.71,0,0,0,512,0a32,32,0,0,0-32,32V352a64.07,64.07,0,0,0,64,64H864a32,32,0,0,0,32-32A381.65,381.65,0,0,0,865.81,234.52ZM544,352V65.57A320.17,320.17,0,0,1,830.43,352Z"/></g></g></svg>