<svg xmlns="http://www.w3.org/2000/svg" viewBox="0 0 1024 832"><defs><style>.cls-1{fill:#27aae1;}</style></defs><title>chart_linechart</title><g id="Layer_2" data-name="Layer 2"><g id="icon"><path class="cls-1" d="M992,768H96a32,32,0,0,1-32-32V32A32,32,0,0,0,0,32V736a96.11,96.11,0,0,0,96,96H992a32,32,0,0,0,0-64Z"/><path class="cls-1" d="M192.43,639.57a31.9,31.9,0,0,0,22.63-9.37L416.43,428.83l82.32,82.31a64,64,0,0,0,90.5,0L822.63,277.77c.28-.29.56-.58.83-.88L870,323.4A32,32,0,0,0,924,307l34.55-172.76a32,32,0,0,0-37.65-37.66L748.1,131.18a32,32,0,0,0-16.35,54l46.5,46.5c-.29.28-.59.55-.88.84L544,465.89l-82.32-82.32a64.08,64.08,0,0,0-90.51,0L169.8,584.94a32,32,0,0,0,22.63,54.63ZM886.35,168.79l-13.41,67.07-53.66-53.65Z"/></g></g></svg>