<svg xmlns="http://www.w3.org/2000/svg" viewBox="0 0 903.77 739.84"><defs><style>.cls-1{fill:#27aae1;}</style></defs><title>check</title><g id="Layer_2" data-name="Layer 2"><g id="icon"><path class="cls-1" d="M291.88,739.84a31.91,31.91,0,0,1-22.63-9.38l-240-240A99.88,99.88,0,0,1,170.51,349.21l16,16a32,32,0,1,1-45.26,45.25l-16-16a35.88,35.88,0,0,0-50.74,50.75L291.88,662.58,829.25,125.21a35.88,35.88,0,0,0-50.74-50.75l-464,464a32,32,0,0,1-45.26,0l-64-64a32,32,0,0,1,45.26-45.25l41.37,41.37L733.25,29.21A99.88,99.88,0,1,1,874.51,170.46l-560,560A31.91,31.91,0,0,1,291.88,739.84Z"/></g></g></svg>