<svg xmlns="http://www.w3.org/2000/svg" viewBox="0 0 1024 1024"><defs><style>.cls-1{fill:#27aae1;}</style></defs><title>circle_check</title><g id="Layer_2" data-name="Layer 2"><g id="icon"><path class="cls-1" d="M448,706.7a95.71,95.71,0,0,1-67.88-28.07L233.37,531.88a32,32,0,0,1,45.26-45.25L425.37,633.37a32,32,0,0,0,45.26,0L777.37,326.63a32,32,0,0,1,45.26,45.25L515.88,678.63A95.71,95.71,0,0,1,448,706.7Z"/><path class="cls-1" d="M512,1024A512.12,512.12,0,0,1,312.7,40.25a512.12,512.12,0,0,1,398.6,943.5A508.73,508.73,0,0,1,512,1024Zm0-960A448.13,448.13,0,0,0,337.63,924.81,448.13,448.13,0,0,0,686.37,99.19,445.2,445.2,0,0,0,512,64Z"/></g></g></svg>