<svg xmlns="http://www.w3.org/2000/svg" viewBox="0 0 1024 1024"><defs><style>.cls-1{fill:#27aae1;}</style></defs><title>clock</title><g id="Layer_2" data-name="Layer 2"><g id="icon"><path class="cls-1" d="M512,1024A512.12,512.12,0,0,1,312.7,40.25a512.12,512.12,0,0,1,398.6,943.5A508.73,508.73,0,0,1,512,1024Zm0-960A448.13,448.13,0,0,0,337.63,924.81,448.13,448.13,0,0,0,686.37,99.19,445.2,445.2,0,0,0,512,64Z"/><path class="cls-1" d="M656,793.42a32,32,0,0,1-27.74-16L484.29,528A32,32,0,0,1,480,512V160a32,32,0,0,1,64,0V503.43l139.71,242a32,32,0,0,1-27.68,48Z"/></g></g></svg>