<svg xmlns="http://www.w3.org/2000/svg" viewBox="0 0 960 1024"><defs><style>.cls-1{fill:#27aae1;}</style></defs><title>door_closed</title><g id="Layer_2" data-name="Layer 2"><g id="icon"><path class="cls-1" d="M736,1024H32a32,32,0,0,1,0-64H736a32,32,0,0,0,32-32V96a32,32,0,0,0-32-32H224a32,32,0,0,0-32,32V896a32,32,0,0,1-64,0V96A96.11,96.11,0,0,1,224,0H736a96.11,96.11,0,0,1,96,96V928A96.11,96.11,0,0,1,736,1024Z"/><path class="cls-1" d="M928,1024H896a32,32,0,0,1,0-64h32a32,32,0,0,1,0,64Z"/><circle class="cls-1" cx="656" cy="512" r="48"/></g></g></svg>