<svg xmlns="http://www.w3.org/2000/svg" viewBox="0 0 960 960"><defs><style>.cls-1{fill:#27aae1;}</style></defs><title>face_id</title><g id="Layer_2" data-name="Layer 2"><g id="icon"><path class="cls-1" d="M32,320a32,32,0,0,0,32-32V96A32,32,0,0,1,96,64H288a32,32,0,0,0,0-64H96A96.11,96.11,0,0,0,0,96V288A32,32,0,0,0,32,320Z"/><path class="cls-1" d="M864,0H672a32,32,0,0,0,0,64H864a32,32,0,0,1,32,32V288a32,32,0,0,0,64,0V96A96.11,96.11,0,0,0,864,0Z"/><path class="cls-1" d="M288,896H96a32,32,0,0,1-32-32V672a32,32,0,0,0-64,0V864a96.11,96.11,0,0,0,96,96H288a32,32,0,0,0,0-64Z"/><path class="cls-1" d="M928,640a32,32,0,0,0-32,32V864a32,32,0,0,1-32,32H672a32,32,0,0,0,0,64H864a96.11,96.11,0,0,0,96-96V672A32,32,0,0,0,928,640Z"/><path class="cls-1" d="M186,322.77A312.82,312.82,0,0,0,160,448c0,27.15,5.59,63.12,16.17,104a32,32,0,1,0,62-16C229,500.76,224,469.51,224,448c0-68.09,27.24-132.45,76.7-181.21A261.3,261.3,0,0,1,382.5,212a248.11,248.11,0,0,1,195,0,261.3,261.3,0,0,1,81.8,54.83C708.76,315.55,736,379.91,736,448c0,21.51-5,52.76-14.13,88a32,32,0,1,0,62,16C794.41,511.12,800,475.15,800,448a312.82,312.82,0,0,0-26-125.23A326.55,326.55,0,0,0,602.47,153a312,312,0,0,0-244.94,0A326.55,326.55,0,0,0,186,322.77Z"/><path class="cls-1" d="M503.86,668.65c-10.7,10.7-37,10.7-47.72,0a32,32,0,0,0-45.26,45.25c17,17,42.23,26.81,69.12,26.81s52.08-9.77,69.12-26.81a32,32,0,0,0-45.26-45.25Z"/><path class="cls-1" d="M698,476.27a31.92,31.92,0,0,0-1.64-10.12c-.47-1.41-11.69-34.9-26.8-64.64a32,32,0,1,0-57.06,29c9.87,19.43,18.12,41.66,21.5,51.18V615.73c0,84.89-69.06,153.95-154,153.95S326.05,700.62,326.05,615.73V553.36c70.29-6.15,136.4-32.46,188.82-75.64C571.29,431.26,605,369.89,605,313.56a32,32,0,1,0-64,0c0,36.86-25.6,80.83-66.8,114.76-48.88,40.26-112.86,62.43-180.13,62.43a32,32,0,0,0-32,32v93a218,218,0,1,0,435.9,0Z"/></g></g></svg>