<svg xmlns="http://www.w3.org/2000/svg" viewBox="0 0 832 1024"><defs><style>.cls-1{fill:#27aae1;}</style></defs><title>file_duplicate</title><g id="Layer_2" data-name="Layer 2"><g id="icon"><path class="cls-1" d="M800,320a32,32,0,0,0-32,32V768a32,32,0,0,1-32,32H256a32,32,0,0,1-32-32V96a32,32,0,0,1,32-32H544V256a32,32,0,0,0,32,32H800a32,32,0,0,0,22.63-54.63l-128-128a32,32,0,0,0-45.26,45.26L722.75,224H608V64A64.07,64.07,0,0,0,544,0H256a96.11,96.11,0,0,0-96,96V768a96.11,96.11,0,0,0,96,96H736a96.11,96.11,0,0,0,96-96V352A32,32,0,0,0,800,320Z"/><path class="cls-1" d="M640,896a32,32,0,0,0-32,32,32,32,0,0,1-32,32H96a32,32,0,0,1-32-32V256a32,32,0,0,1,32-32,32,32,0,0,0,0-64A96.11,96.11,0,0,0,0,256V928a96.11,96.11,0,0,0,96,96H576a96.11,96.11,0,0,0,96-96A32,32,0,0,0,640,896Z"/></g></g></svg>