<svg xmlns="http://www.w3.org/2000/svg" viewBox="0 0 832 1024"><defs><style>.cls-1{fill:#27aae1;}</style></defs><title>file_pages</title><g id="Layer_2" data-name="Layer 2"><g id="icon"><path class="cls-1" d="M800,384a32,32,0,0,0-32,32V928a32,32,0,0,1-32,32H96a32,32,0,0,1-32-32V96A32,32,0,0,1,96,64H480V256a96.11,96.11,0,0,0,96,96H800a32,32,0,0,0,22.63-54.63l-192-192a32,32,0,0,0-45.26,45.26L722.75,288H576a32,32,0,0,1-32-32V64A64.07,64.07,0,0,0,480,0H96A96.11,96.11,0,0,0,0,96V928a96.11,96.11,0,0,0,96,96H736a96.11,96.11,0,0,0,96-96V416A32,32,0,0,0,800,384Z"/><path class="cls-1" d="M148.81,388.27a23.46,23.46,0,0,0,18.11-7.86q7.19-7.86,7.18-23.07V286.42h46.48q46.66,0,70.24-19.74t23.59-58a85.51,85.51,0,0,0-5.81-32.3,64.09,64.09,0,0,0-17-24.27A66.14,66.14,0,0,0,265,137.91q-15.55-4.44-44.44-4.45H155.47q-16.74,0-24.44,7.18t-7.69,23.93V357.68q0,15,7,22.82T148.81,388.27Zm25.29-216.7h34.18q34,0,44.95,11.11,9.74,10.42,9.74,27,0,13.84-6.33,22.39t-18.37,12.31q-12,3.75-30,3.76H174.1Z"/><path class="cls-1" d="M672,416H160a32,32,0,0,0,0,64H672a32,32,0,0,0,0-64Z"/><path class="cls-1" d="M672,544H160a32,32,0,0,0,0,64H672a32,32,0,0,0,0-64Z"/><path class="cls-1" d="M672,672H160a32,32,0,0,0,0,64H672a32,32,0,0,0,0-64Z"/><path class="cls-1" d="M672,800H160a32,32,0,0,0,0,64H672a32,32,0,0,0,0-64Z"/></g></g></svg>