<svg xmlns="http://www.w3.org/2000/svg" viewBox="0 0 864 1024"><defs><style>.cls-1{fill:#27aae1;}</style></defs><title>file_content_duplicate</title><g id="Layer_2" data-name="Layer 2"><g id="icon"><path class="cls-1" d="M608,160H96A96.11,96.11,0,0,0,0,256V928a96.11,96.11,0,0,0,96,96H608a96.11,96.11,0,0,0,96-96V256A96.11,96.11,0,0,0,608,160Zm32,768a32,32,0,0,1-32,32H96a32,32,0,0,1-32-32V256a32,32,0,0,1,32-32H608a32,32,0,0,1,32,32Z"/><path class="cls-1" d="M768,0H224a96.11,96.11,0,0,0-96,96,32,32,0,0,0,64,0,32,32,0,0,1,32-32H768a32,32,0,0,1,32,32V800a32,32,0,0,1-32,32,32,32,0,0,0,0,64,96.11,96.11,0,0,0,96-96V96A96.11,96.11,0,0,0,768,0Z"/><path class="cls-1" d="M544,320H160a32,32,0,0,0,0,64H544a32,32,0,0,0,0-64Z"/><path class="cls-1" d="M544,480H160a32,32,0,0,0,0,64H544a32,32,0,0,0,0-64Z"/><path class="cls-1" d="M544,640H160a32,32,0,0,0,0,64H544a32,32,0,0,0,0-64Z"/><path class="cls-1" d="M544,800H160a32,32,0,0,0,0,64H544a32,32,0,0,0,0-64Z"/></g></g></svg>