<svg xmlns="http://www.w3.org/2000/svg" viewBox="0 0 832 1024"><defs><style>.cls-1{fill:#27aae1;}</style></defs><title>file_sketch</title><g id="Layer_2" data-name="Layer 2"><g id="icon"><path class="cls-1" d="M800,384a32,32,0,0,0-32,32V928a32,32,0,0,1-32,32H96a32,32,0,0,1-32-32V96A32,32,0,0,1,96,64H480V256a96.11,96.11,0,0,0,96,96H800a32,32,0,0,0,22.63-54.63l-192-192a32,32,0,0,0-45.26,45.26L722.75,288H576a32,32,0,0,1-32-32V64A64.07,64.07,0,0,0,480,0H96A96.11,96.11,0,0,0,0,96V928a96.11,96.11,0,0,0,96,96H736a96.11,96.11,0,0,0,96-96V416A32,32,0,0,0,800,384Z"/><path class="cls-1" d="M249.55,340.51Q235.45,351,212.89,351q-16.39,0-26.48-5.22a41.74,41.74,0,0,1-15.64-13.24,101,101,0,0,1-10.34-20q-3.93-10.08-9.49-15.21a19.31,19.31,0,0,0-13.58-5.12,22.19,22.19,0,0,0-22.73,22.39q0,15.88,10.68,32.72a81.45,81.45,0,0,0,27.77,26.92q24.09,14,61.18,14,30.93,0,53.49-10.25T302,349.65a73.66,73.66,0,0,0,11.7-40.85q0-19-6.75-32a59.75,59.75,0,0,0-18.79-21.62A117.07,117.07,0,0,0,259,240.62a379,379,0,0,0-38.37-10.94q-16.9-4.27-24.26-6.5A75.49,75.49,0,0,1,181.79,217a34.59,34.59,0,0,1-11.28-9.4,21,21,0,0,1-4.1-13q0-12.12,12.05-20.76t31.7-8.63q21.19,0,30.76,7.95t16.41,22.13q5.3,9.91,9.82,14.27T280.4,214a20.42,20.42,0,0,0,16-7.27,24,24,0,0,0,6.41-16.32A45.89,45.89,0,0,0,297.66,170q-5.13-10.42-16.24-19.92t-27.94-15.2q-16.83-5.73-39.9-5.73-28.89,0-50.25,8.63t-32.64,24.7a62.34,62.34,0,0,0-11.28,36.74q0,21.7,10.68,36.31T159,258.65q18.2,8.46,45.2,14.78,20.16,4.6,32.21,8.71A49.13,49.13,0,0,1,256.05,294q7.59,7.78,7.6,20.25Q263.65,330,249.55,340.51Z"/><path class="cls-1" d="M128,577.48c0,.21,0,.41,0,.62s0,.56.06.84.05.51.08.76.05.44.08.65.08.58.13.87,0,.3.08.46a32.09,32.09,0,0,0,1.22,4.7l.09.26c.12.34.24.66.37,1l.15.38c.12.3.25.6.38.9l.2.45c.13.28.26.56.4.83s.17.33.25.5.27.52.41.77l.31.54c.14.24.27.48.42.71s.26.41.39.61.39.6.59.89.41.59.63.88.26.33.39.5.34.45.52.67l.43.5.42.5L391.85,885l.36.41c.32.35.64.69,1,1l.13.13.31.32.07.07.77.71,0,0c.29.27.6.53.9.79l.24.2a31.48,31.48,0,0,0,3.81,2.7l.15.09c.66.39,1.34.77,2,1.12l.21.09c.59.3,1.2.57,1.82.83l.43.18.31.13.69.25.8.29h.05l.18.06.51.15c.5.16,1,.3,1.5.43l.35.09.48.11c.57.12,1.14.24,1.71.34l.3.06.68.08c.45.06.89.12,1.34.16l1,.08c.44,0,.88,0,1.32.05.23,0,.46,0,.7,0h0c.24,0,.47,0,.7,0,.44,0,.88,0,1.32-.05l1-.08c.45,0,.9-.1,1.34-.16.23,0,.46-.05.68-.09l.27-.05h0c.59-.1,1.17-.21,1.75-.34l.47-.11.34-.09c.51-.13,1-.28,1.52-.43l.5-.15.18-.06h.05l.8-.29.69-.25.31-.13.42-.17c.63-.27,1.25-.55,1.85-.84l.18-.09c.7-.35,1.38-.73,2.05-1.13l.12-.07a32,32,0,0,0,3.84-2.72l.22-.18c.31-.26.61-.53.91-.8l0,0,.78-.72,0,0,.34-.35.13-.13c.33-.34.66-.69,1-1l.35-.39L695.92,597.26l.42-.5.43-.5c.18-.22.35-.45.52-.67s.27-.33.39-.5.42-.58.63-.88.4-.59.59-.89.27-.41.39-.61.28-.47.42-.71l.31-.54c.14-.25.27-.51.41-.77s.17-.33.25-.5.27-.55.4-.83l.2-.45c.13-.3.26-.6.38-.9l.15-.38c.13-.33.25-.66.37-1l.09-.26a32.09,32.09,0,0,0,1.22-4.7c0-.16,0-.31.08-.46s.09-.58.13-.87.06-.43.08-.65.06-.5.08-.76,0-.56.06-.84,0-.41,0-.62c0-.46,0-.93,0-1.4V576h0c0-.5,0-1,0-1.5l0-.54c0-.31,0-.63-.07-.94s-.05-.45-.08-.68-.06-.5-.09-.76-.07-.51-.12-.76-.07-.42-.11-.62-.1-.58-.16-.86c0-.11,0-.23-.08-.34a31.42,31.42,0,0,0-1-3.39c0-.1-.06-.2-.1-.3-.11-.32-.24-.64-.36-1,0-.14-.1-.27-.16-.4-.12-.3-.25-.61-.38-.9s-.13-.29-.2-.43c-.13-.3-.27-.59-.41-.87l-.23-.44q-.21-.42-.45-.84l-.24-.42c-.16-.28-.32-.56-.49-.84l-.26-.39c-.17-.28-.35-.56-.53-.83l-.26-.36-.59-.82-96-128A32,32,0,0,0,576,416H256a32,32,0,0,0-25.6,12.8l-96,128-.59.82-.26.36c-.18.27-.36.55-.53.83l-.26.39c-.17.28-.33.56-.49.84l-.24.42q-.24.42-.45.84l-.23.44c-.14.28-.28.57-.41.87-.07.14-.13.28-.2.43s-.26.6-.38.9c-.06.13-.11.26-.16.4-.12.32-.25.64-.36,1,0,.1-.07.2-.1.3a31.42,31.42,0,0,0-1,3.39c0,.11-.05.23-.08.34-.06.28-.11.57-.16.86s-.08.41-.11.62-.08.51-.12.76-.07.51-.09.76-.06.46-.08.68,0,.63-.07.94l0,.54c0,.5,0,1,0,1.5h0v.08C128,576.55,128,577,128,577.48ZM231.26,608h65.68l39.4,118.22ZM416,762.81,364.4,608H467.6Zm79.66-36.59L535.06,608h65.68ZM272,480H560l48,64H224Z"/></g></g></svg>