<svg xmlns="http://www.w3.org/2000/svg" viewBox="0 0 832 1024"><defs><style>.cls-1{fill:#27aae1;}</style></defs><title>file_content</title><g id="Layer_2" data-name="Layer 2"><g id="icon"><path class="cls-1" d="M800,864a32,32,0,0,0,32-32V96A96.11,96.11,0,0,0,736,0H96A96.11,96.11,0,0,0,0,96V928a96.11,96.11,0,0,0,96,96H736a96.11,96.11,0,0,0,96-96,32,32,0,0,0-64,0,32,32,0,0,1-32,32H96a32,32,0,0,1-32-32V96A32,32,0,0,1,96,64H736a32,32,0,0,1,32,32V832A32,32,0,0,0,800,864Z"/><path class="cls-1" d="M640,160H192a32,32,0,0,0,0,64H640a32,32,0,0,0,0-64Z"/><path class="cls-1" d="M640,320H192a32,32,0,0,0,0,64H640a32,32,0,0,0,0-64Z"/><path class="cls-1" d="M640,480H192a32,32,0,0,0,0,64H640a32,32,0,0,0,0-64Z"/><path class="cls-1" d="M640,640H192a32,32,0,0,0,0,64H640a32,32,0,0,0,0-64Z"/><path class="cls-1" d="M640,800H192a32,32,0,0,0,0,64H640a32,32,0,0,0,0-64Z"/></g></g></svg>