<svg xmlns="http://www.w3.org/2000/svg" viewBox="0 0 832 1024"><defs><style>.cls-1{fill:#27aae1;}</style></defs><title>file_paper</title><g id="Layer_2" data-name="Layer 2"><g id="icon"><path class="cls-1" d="M768,800H257.56a66.05,66.05,0,0,0-45.28,18A63.4,63.4,0,0,0,192,864v32c0,35.75-27.91,63.78-63.6,64A64.85,64.85,0,0,1,64,895.22V64H672V736a32,32,0,0,0,64,0V64A64.07,64.07,0,0,0,672,0H64A64.07,64.07,0,0,0,0,64V895.22A128.92,128.92,0,0,0,127.21,1024l.79,0H704A127.46,127.46,0,0,0,832,896V864A64.07,64.07,0,0,0,768,800Zm0,96c0,35.89-28.11,64-64,64H239.11A128.1,128.1,0,0,0,256,896V864.75a2.67,2.67,0,0,1,1.56-.75H768Z"/><path class="cls-1" d="M576,192H160a32,32,0,0,0,0,64H576a32,32,0,0,0,0-64Z"/><path class="cls-1" d="M608,416a32,32,0,0,0-32-32H160a32,32,0,0,0,0,64H576A32,32,0,0,0,608,416Z"/><path class="cls-1" d="M160,576a32,32,0,0,0,0,64H512a32,32,0,0,0,0-64Z"/></g></g></svg>