<svg xmlns="http://www.w3.org/2000/svg" viewBox="0 0 832 1024"><defs><style>.cls-1{fill:#27aae1;}</style></defs><title>file_code</title><g id="Layer_2" data-name="Layer 2"><g id="icon"><path class="cls-1" d="M800,384a32,32,0,0,0-32,32V928a32,32,0,0,1-32,32H96a32,32,0,0,1-32-32V96A32,32,0,0,1,96,64H480V256a96.11,96.11,0,0,0,96,96H800a32,32,0,0,0,22.63-54.63l-192-192a32,32,0,0,0-45.26,45.26L722.75,288H576a32,32,0,0,1-32-32V64A64.07,64.07,0,0,0,480,0H96A96.11,96.11,0,0,0,0,96V928a96.11,96.11,0,0,0,96,96H736a96.11,96.11,0,0,0,96-96V416A32,32,0,0,0,800,384Z"/><path class="cls-1" d="M278.63,569.37a32,32,0,0,0-45.26,0l-96,96a32,32,0,0,0,0,45.26l96,96a32,32,0,0,0,45.26-45.26L205.25,688l73.38-73.37A32,32,0,0,0,278.63,569.37Z"/><path class="cls-1" d="M553.37,806.63a32,32,0,0,0,45.26,0l96-96a32,32,0,0,0,0-45.26l-96-96a32,32,0,0,0-45.26,45.26L626.75,688l-73.38,73.37A32,32,0,0,0,553.37,806.63Z"/><path class="cls-1" d="M493,514.76A32,32,0,0,0,450.76,531l-128,288a32,32,0,1,0,58.48,26l128-288A32,32,0,0,0,493,514.76Z"/></g></g></svg>