<svg xmlns="http://www.w3.org/2000/svg" viewBox="0 0 832 1024"><defs><style>.cls-1{fill:#27aae1;}</style></defs><title>file_jpg</title><g id="Layer_2" data-name="Layer 2"><g id="icon"><path class="cls-1" d="M800,384a32,32,0,0,0-32,32V928a32,32,0,0,1-32,32H96a32,32,0,0,1-32-32V96A32,32,0,0,1,96,64H480V256a96.11,96.11,0,0,0,96,96H800a32,32,0,0,0,22.63-54.63l-192-192a32,32,0,0,0-45.26,45.26L722.75,288H576a32,32,0,0,1-32-32V64A64.07,64.07,0,0,0,480,0H96A96.11,96.11,0,0,0,0,96V928a96.11,96.11,0,0,0,96,96H736a96.11,96.11,0,0,0,96-96V416A32,32,0,0,0,800,384Z"/><path class="cls-1" d="M237.44,608.59c-8.12,0-14.68,2.79-19.51,8.29-4.66,5.32-7,13.08-7,23.08v118.8c0,16-2.47,37.33-23.86,37.33-6,0-10.54-1.24-13.51-3.69a21.76,21.76,0,0,1-6.84-9.45,135.76,135.76,0,0,1-4.79-17.37c-1.77-7.94-4.34-13.75-7.87-17.75-3.91-4.43-9.56-6.67-16.79-6.67s-13.34,2.29-18.09,6.79-7.27,11.08-7.27,19.3A82.07,82.07,0,0,0,115,788.94,86.48,86.48,0,0,0,123.1,809c6.45,11.1,15.1,19.27,25.7,24.28,10.35,4.88,23.31,7.36,38.54,7.36,16.94,0,31.59-3.56,43.54-10.57a61.33,61.33,0,0,0,26.26-30,84.23,84.23,0,0,0,6-22.12,217.19,217.19,0,0,0,1.28-25.5V640c0-10-2.43-17.8-7.22-23.12C252.27,611.37,245.62,608.59,237.44,608.59Z"/><path class="cls-1" d="M454.1,629.48a61.9,61.9,0,0,0-24.72-13.23c-9.42-2.69-22.33-4-39.45-4H334.12c-10.84,0-19,2.53-24.36,7.5s-8.18,13.2-8.18,24.16V809.44c0,9.83,2.45,17.54,7.29,22.9,5,5.52,11.54,8.32,19.53,8.32a25,25,0,0,0,19.22-8.36c4.95-5.42,7.46-13.21,7.46-23.15V753.36h34.85c27.74,0,49.07-6.09,63.41-18.09,14.6-12.22,22-30.24,22-53.56A78.48,78.48,0,0,0,470,652.15,60,60,0,0,0,454.1,629.48ZM416.81,698.8c-3,4.05-7.31,6.91-13.21,8.75-6.37,2-14.52,3-24.22,3h-24.3V654.92h24.3c22.27,0,31.28,4.33,34.92,8,4.68,5,6.95,11.47,6.95,19.68C421.25,689.36,419.76,694.82,416.81,698.8Z"/><path class="cls-1" d="M563.14,670.67a50.85,50.85,0,0,1,18.49-13.75,61.93,61.93,0,0,1,25-4.78c9,0,16.38,1.32,22,3.92a39.33,39.33,0,0,1,13.34,9.58,169.59,169.59,0,0,1,13.2,18.47l.19.28a25.54,25.54,0,0,0,9,7.63,24.67,24.67,0,0,0,11.28,2.74,25.32,25.32,0,0,0,18-7.16A23.5,23.5,0,0,0,701.22,670c0-5.89-2-12.55-5.86-19.8a70.19,70.19,0,0,0-16.86-20.06c-7.37-6.23-17-11.43-28.69-15.48s-25.07-6.06-40-6.06c-18.09,0-34.55,2.69-48.9,8a101.87,101.87,0,0,0-37.11,23.35,99.57,99.57,0,0,0-23.14,37.15c-5.15,14.34-7.77,30.34-7.77,47.54,0,17.51,2.7,33.62,8,47.88a102.87,102.87,0,0,0,23.18,36.93,100.15,100.15,0,0,0,36.52,23.29c14.07,5.26,29.84,7.93,46.87,7.93a156.89,156.89,0,0,0,40.55-5,179.81,179.81,0,0,0,38.59-15.82,61.19,61.19,0,0,0,12-8.32,25.88,25.88,0,0,0,7.31-11,47.71,47.71,0,0,0,1.86-14.67V744.7c0-8.55-1.57-14.94-4.78-19.57A22.36,22.36,0,0,0,690,716a68.4,68.4,0,0,0-16.62-1.76H624c-7.21,0-13.09,2-17.49,6a20.18,20.18,0,0,0-6.85,15.58c0,9.63,4.73,14.43,8.69,16.76,5,2.93,11.82,4.35,20.92,4.35H658v26.85a136.74,136.74,0,0,1-23.31,9.5A94,94,0,0,1,607.75,797c-19.35,0-33.94-6.09-44.61-18.6S547,747.31,547,723.46a102,102,0,0,1,4.24-30.31A63.24,63.24,0,0,1,563.14,670.67Z"/></g></g></svg>