<svg xmlns="http://www.w3.org/2000/svg" viewBox="0 0 832 1024"><defs><style>.cls-1{fill:#27aae1;}</style></defs><title>file_empty</title><g id="Layer_2" data-name="Layer 2"><g id="icon"><path class="cls-1" d="M736,1024H96A96.11,96.11,0,0,1,0,928V96A96.11,96.11,0,0,1,96,0H480a64.07,64.07,0,0,1,64,64V256a32,32,0,0,0,32,32H722.75L585.37,150.63a32,32,0,0,1,45.26-45.26l192,192A32,32,0,0,1,800,352H576a96.11,96.11,0,0,1-96-96V64H96A32,32,0,0,0,64,96V928a32,32,0,0,0,32,32H736a32,32,0,0,0,32-32V416a32,32,0,0,1,64,0V928A96.11,96.11,0,0,1,736,1024Z"/></g></g></svg>