<svg xmlns="http://www.w3.org/2000/svg" viewBox="0 0 832 1024"><defs><style>.cls-1{fill:#27aae1;}</style></defs><title>file_numbers</title><g id="Layer_2" data-name="Layer 2"><g id="icon"><path class="cls-1" d="M800,384a32,32,0,0,0-32,32V928a32,32,0,0,1-32,32H96a32,32,0,0,1-32-32V96A32,32,0,0,1,96,64H480V256a96.11,96.11,0,0,0,96,96H800a32,32,0,0,0,22.63-54.63l-192-192a32,32,0,0,0-45.26,45.26L722.75,288H576a32,32,0,0,1-32-32V64A64.07,64.07,0,0,0,480,0H96A96.11,96.11,0,0,0,0,96V928a96.11,96.11,0,0,0,96,96H736a96.11,96.11,0,0,0,96-96V416A32,32,0,0,0,800,384Z"/><path class="cls-1" d="M310.14,129.19q-10.61,0-16.84,7.26t-6.24,21.79v149L189.48,159.61q-4.09-6.5-7.95-12.48a62.62,62.62,0,0,0-7.51-9.74,28.4,28.4,0,0,0-8.55-6,28.09,28.09,0,0,0-11.71-2.22,29.26,29.26,0,0,0-16.23,4.87,27.56,27.56,0,0,0-10.77,12.56q-2.73,7-2.73,19.31V359.22q0,14.19,6.49,21.62t17.26,7.43a22,22,0,0,0,17.09-7.35q6.67-7.34,6.67-21.7V212.42l95.19,146q4.09,6,8.2,11.7a61,61,0,0,0,8.89,10,31.15,31.15,0,0,0,10.25,6.24,36.26,36.26,0,0,0,12.31,2q27.33,0,27.34-33v-197q0-14.52-6.32-21.79T310.14,129.19Z"/><path class="cls-1" d="M160,864H672a32,32,0,0,0,0-64H160a32,32,0,0,0,0,64Z"/><rect class="cls-1" x="192" y="608" width="96" height="160" rx="16" ry="16"/><rect class="cls-1" x="544" y="512" width="96" height="256" rx="16" ry="16"/><rect class="cls-1" x="426.67" y="416" width="96" height="352" rx="16" ry="16"/><rect class="cls-1" x="309.33" y="544" width="96" height="224" rx="16" ry="16"/></g></g></svg>