<svg xmlns="http://www.w3.org/2000/svg" viewBox="0 0 1024 1024"><defs><style>.cls-1{fill:#27aae1;}</style></defs><title>filter</title><g id="Layer_2" data-name="Layer 2"><g id="icon"><path class="cls-1" d="M512,198.39c0-40.34-36.9-70.77-76.44-62.78C260.11,171.05,128,326.1,128,512S260.11,853,435.56,888.39C475.1,896.38,512,866,512,825.61Z"/><path class="cls-1" d="M512,1024A512.12,512.12,0,0,1,312.7,40.25a512.12,512.12,0,0,1,398.6,943.5A508.73,508.73,0,0,1,512,1024Zm0-960A448.13,448.13,0,0,0,337.63,924.81,448.13,448.13,0,0,0,686.37,99.19,445.2,445.2,0,0,0,512,64Z"/></g></g></svg>