<svg xmlns="http://www.w3.org/2000/svg" viewBox="0 0 1024 832"><defs><style>.cls-1{fill:#27aae1;}</style></defs><title>finder_opened</title><g id="Layer_2" data-name="Layer 2"><g id="icon"><path class="cls-1" d="M1009.48,311.43A63.75,63.75,0,0,0,960,288H246.22a95.7,95.7,0,0,0-94.7,80.22L96.44,698.74a32,32,0,1,0,63.12,10.52l55.09-330.52A31.91,31.91,0,0,1,246.22,352H960L881.93,742.28A32.08,32.08,0,0,1,850.56,768H96a32,32,0,0,1-32-32V96A32,32,0,0,1,96,64H349.75a31.93,31.93,0,0,1,26.62,14.25l45,67.5A32,32,0,0,0,448,160H800a32,32,0,0,1,32,32v32a32,32,0,0,0,64,0V192a96.11,96.11,0,0,0-96-96H465.13l-35.5-53.25A95.82,95.82,0,0,0,349.75,0H96A96.11,96.11,0,0,0,0,96V736a96.11,96.11,0,0,0,96,96H850.56a96.26,96.26,0,0,0,94.13-77.17l78.06-390.28A63.76,63.76,0,0,0,1009.48,311.43Z"/></g></g></svg>