<svg xmlns="http://www.w3.org/2000/svg" viewBox="0 0 960 832"><defs><style>.cls-1{fill:#27aae1;}</style></defs><title>finder_plus</title><g id="Layer_2" data-name="Layer 2"><g id="icon"><path class="cls-1" d="M384,320a32,32,0,0,0-32-32H128a32,32,0,0,0,0,64H352A32,32,0,0,0,384,320Z"/><path class="cls-1" d="M928,256a32,32,0,0,0,32-32V192a96.11,96.11,0,0,0-96-96H465.13L429.62,42.75A95.79,95.79,0,0,0,349.75,0H96A96.11,96.11,0,0,0,0,96V736a96.11,96.11,0,0,0,96,96H864a96.11,96.11,0,0,0,96-96V320a32,32,0,0,0-32-32H608a32,32,0,0,0,0,64H896V736a32,32,0,0,1-32,32H96a32,32,0,0,1-32-32V96A32,32,0,0,1,96,64H349.75a31.93,31.93,0,0,1,26.62,14.25l45,67.5A32,32,0,0,0,448,160H864a32,32,0,0,1,32,32v32A32,32,0,0,0,928,256Z"/><path class="cls-1" d="M480,288a32,32,0,0,0-32,32V480H288a32,32,0,0,0,0,64H448V704a32,32,0,0,0,64,0V544H672a32,32,0,0,0,0-64H512V320A32,32,0,0,0,480,288Z"/></g></g></svg>