<svg xmlns="http://www.w3.org/2000/svg" viewBox="0 0 1024 832"><defs><style>.cls-1{fill:#27aae1;}</style></defs><title>first_aid</title><g id="Layer_2" data-name="Layer 2"><g id="icon"><path class="cls-1" d="M992,640a32,32,0,0,0,32-32V256a96.11,96.11,0,0,0-96-96H96A96.11,96.11,0,0,0,0,256V736a96.11,96.11,0,0,0,96,96H928a96.11,96.11,0,0,0,96-96,32,32,0,0,0-64,0,32,32,0,0,1-32,32H96a32,32,0,0,1-32-32V256a32,32,0,0,1,32-32H928a32,32,0,0,1,32,32V608A32,32,0,0,0,992,640Z"/><path class="cls-1" d="M448,704H576a32,32,0,0,0,32-32V608h64a32,32,0,0,0,32-32V448a32,32,0,0,0-32-32H608V352a32,32,0,0,0-32-32H448a32,32,0,0,0-32,32v64H352a32,32,0,0,0-32,32V576a32,32,0,0,0,32,32h64v64A32,32,0,0,0,448,704ZM384,544V480h64a32,32,0,0,0,32-32V384h64v64a32,32,0,0,0,32,32h64v64H576a32,32,0,0,0-32,32v64H480V576a32,32,0,0,0-32-32Z"/><path class="cls-1" d="M320,128a32,32,0,0,0,32-32,32,32,0,0,1,32-32H640a32,32,0,0,1,32,32,32,32,0,0,0,64,0A96.11,96.11,0,0,0,640,0H384a96.11,96.11,0,0,0-96,96A32,32,0,0,0,320,128Z"/></g></g></svg>