<svg xmlns="http://www.w3.org/2000/svg" viewBox="0 0 1024 1024"><defs><style>.cls-1{fill:#27aae1;}</style></defs><title>gear</title><g id="Layer_2" data-name="Layer 2"><g id="icon"><path class="cls-1" d="M576,1024H448a64.07,64.07,0,0,1-64-64V907.93a414.6,414.6,0,0,1-61.51-25.51l-36.76,36.87a64,64,0,0,1-90.51,0l-90.51-90.51a64.06,64.06,0,0,1,0-90.51l36.84-36.84A413.48,413.48,0,0,1,116.08,640H64A64.07,64.07,0,0,1,0,576V448a64.07,64.07,0,0,1,64-64h52.07a414.6,414.6,0,0,1,25.51-61.51l-36.87-36.76a64.06,64.06,0,0,1,0-90.51l90.51-90.51a64.06,64.06,0,0,1,90.51,0l36.84,36.84A413.48,413.48,0,0,1,384,116.08V64A64.07,64.07,0,0,1,448,0H576a64.07,64.07,0,0,1,64,64v52.07a414.6,414.6,0,0,1,61.51,25.51l36.76-36.87a64.06,64.06,0,0,1,90.51,0l90.51,90.51a64.06,64.06,0,0,1,0,90.51l-36.84,36.84A413.48,413.48,0,0,1,907.92,384H960a64.07,64.07,0,0,1,64,64V576a64.07,64.07,0,0,1-64,64H907.93a414.6,414.6,0,0,1-25.51,61.51l36.87,36.76a64.06,64.06,0,0,1,0,90.51l-90.51,90.51a64,64,0,0,1-90.51,0l-36.84-36.84A413.48,413.48,0,0,1,640,907.92V960A64.07,64.07,0,0,1,576,1024ZM322.52,818.4a63.93,63.93,0,0,1,29.17,7.06,350.45,350.45,0,0,0,52.08,21.6A63.72,63.72,0,0,1,448,907.92V960H576V907.92a63.72,63.72,0,0,1,44.23-60.86,350.45,350.45,0,0,0,52.08-21.6,63.77,63.77,0,0,1,74.37,11.73L783.53,874,874,783.53l-36.85-36.85a63.75,63.75,0,0,1-11.73-74.36,351,351,0,0,0,21.6-52.09A63.72,63.72,0,0,1,907.92,576H960V448H907.92a63.72,63.72,0,0,1-60.86-44.23,350.45,350.45,0,0,0-21.6-52.08,63.77,63.77,0,0,1,11.73-74.37L874,240.47,783.53,150l-36.85,36.85a63.77,63.77,0,0,1-74.37,11.73,350.45,350.45,0,0,0-52.08-21.6A63.72,63.72,0,0,1,576,116.08V64H448v52.08a63.72,63.72,0,0,1-44.23,60.86,350.45,350.45,0,0,0-52.08,21.6,63.77,63.77,0,0,1-74.37-11.73L240.47,150,150,240.47l36.85,36.85a63.77,63.77,0,0,1,11.73,74.37,350.45,350.45,0,0,0-21.6,52.08A63.72,63.72,0,0,1,116.08,448H64V576h52.08a63.72,63.72,0,0,1,60.86,44.23,350.45,350.45,0,0,0,21.6,52.08,63.77,63.77,0,0,1-11.73,74.37L150,783.53,240.47,874l36.85-36.85A63.84,63.84,0,0,1,322.52,818.4ZM512.05,704q-7.17,0-14.33-.52a192,192,0,0,1-177.2-177.2c-3.68-50,12-100.57,45.38-146.27A70.92,70.92,0,0,1,380,365.9c45.7-33.37,96.28-49.06,146.27-45.38a192.07,192.07,0,0,1,177.2,177.2c3.68,50-12,100.57-45.38,146.27A70.92,70.92,0,0,1,644,658.1h0C602.66,688.28,557.33,704,512.05,704ZM417.33,418.11c-24.12,33.17-35.52,68.94-33,103.47A128,128,0,0,0,502.42,639.65c34.53,2.54,70.3-8.86,103.47-33,.24-.21.57-.55.78-.78,24.12-33.17,35.52-68.94,33-103.47A128,128,0,0,0,521.58,384.35c-34.53-2.54-70.3,8.86-103.47,33C417.88,417.54,417.54,417.87,417.33,418.11ZM606.45,606.2l0,0ZM417.79,417.56l0,0Z"/></g></g></svg>