<svg xmlns="http://www.w3.org/2000/svg" viewBox="0 0 1024 832"><defs><style>.cls-1{fill:#27aae1;}</style></defs><title>hard_drive_download</title><g id="Layer_2" data-name="Layer 2"><g id="icon"><path class="cls-1" d="M444.12,585.37a96.09,96.09,0,0,0,135.76,0L790.63,374.63a32,32,0,0,0-45.26-45.26L534.63,540.12a32.05,32.05,0,0,1-45.26,0L278.63,329.37a32,32,0,0,0-45.26,45.26Z"/><path class="cls-1" d="M928,416H832a32,32,0,0,0,0,64h96a32,32,0,0,1,32,32V736a32,32,0,0,1-32,32H96a32,32,0,0,1-32-32V512a32,32,0,0,1,32-32h96a32,32,0,0,0,0-64H96A96.11,96.11,0,0,0,0,512V736a96.11,96.11,0,0,0,96,96H928a96.11,96.11,0,0,0,96-96V512A96.11,96.11,0,0,0,928,416Z"/><circle class="cls-1" cx="864" cy="704" r="32"/><circle class="cls-1" cx="768" cy="704" r="32"/><path class="cls-1" d="M512,480a32,32,0,0,0,32-32V32a32,32,0,0,0-64,0V448A32,32,0,0,0,512,480Z"/></g></g></svg>