<svg xmlns="http://www.w3.org/2000/svg" viewBox="0 0 960 960"><defs><style>.cls-1{fill:#27aae1;}</style></defs><title>house</title><g id="Layer_2" data-name="Layer 2"><g id="icon"><path class="cls-1" d="M950.63,430.86,547.88,28.12a96,96,0,0,0-135.76,0L9.37,430.86a32,32,0,0,0,45.26,45.26L457.37,73.37a32,32,0,0,1,45.26,0L905.37,476.12a32,32,0,0,0,45.26-45.26Z"/><path class="cls-1" d="M768,448H192a96.11,96.11,0,0,0-96,96V864a96.11,96.11,0,0,0,96,96H768a96.11,96.11,0,0,0,96-96V544A96.11,96.11,0,0,0,768,448ZM544,896H416V672H544Zm256-32a32,32,0,0,1-32,32H608V672a64.07,64.07,0,0,0-64-64H416a64.07,64.07,0,0,0-64,64V896H192a32,32,0,0,1-32-32V544a32,32,0,0,1,32-32H768a32,32,0,0,1,32,32Z"/></g></g></svg>