<svg xmlns="http://www.w3.org/2000/svg" viewBox="0 0 1024 832"><defs><style>.cls-1{fill:#27aae1;}</style></defs><title>id_card</title><g id="Layer_2" data-name="Layer 2"><g id="icon"><path class="cls-1" d="M380.86,536A127.94,127.94,0,1,0,288,576,128.14,128.14,0,0,1,416,704v64H224a32,32,0,0,0,0,64H448a32,32,0,0,0,32-32V704A192.13,192.13,0,0,0,380.86,536ZM224,448a64,64,0,1,1,64,64A64.07,64.07,0,0,1,224,448Z"/><path class="cls-1" d="M928,0H96A96.11,96.11,0,0,0,0,96V736a96.11,96.11,0,0,0,96,96h32a32,32,0,0,0,32-32V704a126.89,126.89,0,0,1,25.58-76.79,32,32,0,1,0-51.16-38.45A190.35,190.35,0,0,0,96,704v64a32,32,0,0,1-32-32V96A32,32,0,0,1,96,64H928a32,32,0,0,1,32,32V736a32,32,0,0,1-32,32H544a32,32,0,0,0,0,64H928a96.11,96.11,0,0,0,96-96V96A96.11,96.11,0,0,0,928,0Z"/><path class="cls-1" d="M544,384a32,32,0,0,0,0,64h32a32,32,0,0,0,0-64Z"/><path class="cls-1" d="M720,384H688a32,32,0,0,0,0,64h32a32,32,0,0,0,0-64Z"/><path class="cls-1" d="M832,384a32,32,0,0,0,0,64h32a32,32,0,0,0,0-64Z"/><path class="cls-1" d="M512,544a32,32,0,0,0,32,32H864a32,32,0,0,0,0-64H544A32,32,0,0,0,512,544Z"/><path class="cls-1" d="M864,640H544a32,32,0,0,0,0,64H864a32,32,0,0,0,0-64Z"/><path class="cls-1" d="M512,160a32,32,0,0,0,0-64H416a32,32,0,0,0-32,32V288a32,32,0,0,0,32,32h96a32,32,0,0,0,32-32V224a32,32,0,0,0-64,0v32H448V160Z"/><path class="cls-1" d="M608,256a32,32,0,0,0,0,64h96a32,32,0,0,0,32-32V208a32,32,0,0,0-32-32H640V160h64a32,32,0,0,0,0-64H608a32,32,0,0,0-32,32v80a32,32,0,0,0,32,32h64v16Z"/><path class="cls-1" d="M800,256a32,32,0,0,0,0,64h96a32,32,0,0,0,32-32V208a32,32,0,0,0-32-32H832V160h64a32,32,0,0,0,0-64H800a32,32,0,0,0-32,32v80a32,32,0,0,0,32,32h64v16Z"/></g></g></svg>