<svg xmlns="http://www.w3.org/2000/svg" viewBox="0 0 736 1024"><defs><style>.cls-1{fill:#27aae1;}</style></defs><title>lamp</title><g id="Layer_2" data-name="Layer 2"><g id="icon"><path class="cls-1" d="M709.18,229.52a368.27,368.27,0,0,0-679.95-5.47A368.34,368.34,0,0,0,191.39,690.9a32,32,0,0,1,16.61,28V864a32,32,0,0,0,32,32H496a32,32,0,0,0,0-64H272V718.94a96,96,0,0,0-49.85-84.17A304,304,0,0,1,370.51,64c81.89.66,158.33,33.15,215.24,91.49S673.33,291.21,672,373.2A303.93,303.93,0,0,1,514,634.7a96.1,96.1,0,0,0-50,84.24V768a32,32,0,0,0,64,0V718.94a32.14,32.14,0,0,1,16.77-28.13A368.74,368.74,0,0,0,709.18,229.52Z"/><path class="cls-1" d="M496,960H240a32,32,0,0,0,0,64H496a32,32,0,0,0,0-64Z"/><path class="cls-1" d="M576,368a32,32,0,0,0,64,0A272,272,0,0,0,368,96a32,32,0,0,0,0,64C482.69,160,576,253.31,576,368Z"/></g></g></svg>