<svg xmlns="http://www.w3.org/2000/svg" viewBox="0 0 847.37 847.45"><defs><style>.cls-1{fill:#27aae1;}</style></defs><title>link</title><g id="Layer_2" data-name="Layer 2"><g id="icon"><path class="cls-1" d="M798.31,49.14a167.75,167.75,0,0,0-237.25,0l-224,224c-65.41,65.41-65.41,171.84,0,237.25l32,32a32,32,0,0,0,45.25-45.25l-32-32a103.77,103.77,0,0,1,0-146.75l224-224A103.77,103.77,0,0,1,753.06,241.14l-160,160a32,32,0,0,0,45.25,45.25l160-160C863.73,221,863.72,114.55,798.31,49.14Z"/><path class="cls-1" d="M478.31,305.14a32,32,0,0,0-45.25,45.25l32,32a103.77,103.77,0,0,1,0,146.75l-224,224A103.77,103.77,0,0,1,94.31,606.39l160-160a32,32,0,0,0-45.25-45.25l-160,160c-65.41,65.41-65.41,171.84,0,237.25a167.95,167.95,0,0,0,237.25,0l224-224c65.42-65.41,65.42-171.84,0-237.25Z"/></g></g></svg>