<svg xmlns="http://www.w3.org/2000/svg" viewBox="0 0 941.25 941.22"><defs><style>.cls-1{fill:#27aae1;}</style></defs><title>magnifier</title><g id="Layer_2" data-name="Layer 2"><g id="icon"><path class="cls-1" d="M589.25,704a352.08,352.08,0,0,1-137-676.32,352.08,352.08,0,0,1,274,648.64A349.74,349.74,0,0,1,589.25,704Zm0-640A288,288,0,0,0,385.61,555.65,288,288,0,0,0,792.9,148.35,286.13,286.13,0,0,0,589.25,64Z"/><path class="cls-1" d="M813.25,384h0a32,32,0,0,1-32-32A190.75,190.75,0,0,0,725,216.24,32,32,0,0,1,770.27,171a254.29,254.29,0,0,1,75,181A32,32,0,0,1,813.25,384Z"/><path class="cls-1" d="M77.25,941.22A77.23,77.23,0,0,1,22.63,809.37l192-192A77.25,77.25,0,1,1,323.88,726.63l-192,192A77,77,0,0,1,77.25,941.22ZM259.88,662.63l-192,192a13.25,13.25,0,0,0,18.75,18.74l192-192a13.25,13.25,0,1,0-18.75-18.74Z"/></g></g></svg>