<svg xmlns="http://www.w3.org/2000/svg" viewBox="0 0 1024 832"><defs><style>.cls-1{fill:#27aae1;}</style></defs><title>message_rounded_close</title><g id="Layer_2" data-name="Layer 2"><g id="icon"><path class="cls-1" d="M996.33,215A351.72,351.72,0,0,0,672,0H352A352.12,352.12,0,0,0,38.36,511.94,355.16,355.16,0,0,0,128,623.53V672a32,32,0,0,0,64,0V608a32,32,0,0,0-12.78-25.58,290.85,290.85,0,0,1-83.87-99.62A288.06,288.06,0,0,1,352,64H672A288,288,0,0,1,875.65,555.65,286.15,286.15,0,0,1,672,640H352a32,32,0,0,0-17.75,5.37l-192,128a32,32,0,0,0,35.5,53.26L361.69,704H672A352.18,352.18,0,0,0,996.33,215Z"/><path class="cls-1" d="M376.24,487.76a32,32,0,0,0,45.25,0L512,397.26l90.51,90.5a32,32,0,0,0,45.25-45.25L557.26,352l90.5-90.51a32,32,0,0,0-45.25-45.25L512,306.74l-90.51-90.5a32,32,0,0,0-45.25,45.25L466.74,352l-90.5,90.51A32,32,0,0,0,376.24,487.76Z"/></g></g></svg>