<svg xmlns="http://www.w3.org/2000/svg" viewBox="0 0 1024 832"><defs><style>.cls-1{fill:#27aae1;}</style></defs><title>message_square_content</title><g id="Layer_2" data-name="Layer 2"><g id="icon"><path class="cls-1" d="M928,0H96A96.11,96.11,0,0,0,0,96V576a32,32,0,0,0,64,0V96A32,32,0,0,1,96,64H928a32,32,0,0,1,32,32V608a32,32,0,0,1-32,32H224a32.06,32.06,0,0,0-17.75,5.37l-192,128a32,32,0,0,0,35.5,53.26L233.69,704H928a96.11,96.11,0,0,0,96-96V96A96.11,96.11,0,0,0,928,0Z"/><path class="cls-1" d="M256,304H768a32,32,0,0,0,0-64H256a32,32,0,0,0,0,64Z"/><path class="cls-1" d="M256,464H608a32,32,0,0,0,0-64H256a32,32,0,0,0,0,64Z"/></g></g></svg>