<svg xmlns="http://www.w3.org/2000/svg" viewBox="0 0 1024 832"><defs><style>.cls-1{fill:#27aae1;}</style></defs><title>message_rounded_more</title><g id="Layer_2" data-name="Layer 2"><g id="icon"><path class="cls-1" d="M996.33,215A351.72,351.72,0,0,0,672,0H352A352.12,352.12,0,0,0,38.36,511.94,355.16,355.16,0,0,0,128,623.53V672a32,32,0,0,0,64,0V608a32,32,0,0,0-12.78-25.58,290.85,290.85,0,0,1-83.87-99.62A288.06,288.06,0,0,1,352,64H672A288,288,0,0,1,875.65,555.65,286.15,286.15,0,0,1,672,640H352a32,32,0,0,0-17.75,5.37l-192,128a32,32,0,0,0,35.5,53.26L361.69,704H672A352.18,352.18,0,0,0,996.33,215Z"/><path class="cls-1" d="M256,256a96,96,0,1,0,96,96A96.11,96.11,0,0,0,256,256Zm0,128a32,32,0,1,1,32-32A32,32,0,0,1,256,384Z"/><path class="cls-1" d="M608,352a96,96,0,1,0-96,96A96.11,96.11,0,0,0,608,352Zm-128,0a32,32,0,1,1,32,32A32,32,0,0,1,480,352Z"/><path class="cls-1" d="M864,352a96,96,0,1,0-96,96A96.11,96.11,0,0,0,864,352Zm-128,0a32,32,0,1,1,32,32A32,32,0,0,1,736,352Z"/></g></g></svg>