<svg xmlns="http://www.w3.org/2000/svg" viewBox="0 0 1024 832"><defs><style>.cls-1{fill:#27aae1;}</style></defs><title>message_square_smile</title><g id="Layer_2" data-name="Layer 2"><g id="icon"><path class="cls-1" d="M928,0H96A96.11,96.11,0,0,0,0,96V576a32,32,0,0,0,64,0V96A32,32,0,0,1,96,64H928a32,32,0,0,1,32,32V608a32,32,0,0,1-32,32H224a32.06,32.06,0,0,0-17.75,5.37l-192,128a32,32,0,0,0,35.5,53.26L233.69,704H928a96.11,96.11,0,0,0,96-96V96A96.11,96.11,0,0,0,928,0Z"/><path class="cls-1" d="M636.45,428.45c-68.62,68.62-180.28,68.62-248.9,0a32,32,0,0,0-45.25,45.26,240,240,0,0,0,339.41,0,32,32,0,0,0-45.26-45.26Z"/><path class="cls-1" d="M304,192a32,32,0,0,0-32,32v64a32,32,0,0,0,64,0V224A32,32,0,0,0,304,192Z"/><path class="cls-1" d="M720,320a32,32,0,0,0,32-32V224a32,32,0,0,0-64,0v64A32,32,0,0,0,720,320Z"/></g></g></svg>