<svg xmlns="http://www.w3.org/2000/svg" viewBox="0 0 960 960"><defs><style>.cls-1{fill:#27aae1;}</style></defs><title>notification</title><g id="Layer_2" data-name="Layer 2"><g id="icon"><path class="cls-1" d="M832,352a32,32,0,0,0-32,32V800a96.11,96.11,0,0,1-96,96H160a96.11,96.11,0,0,1-96-96V256a96.11,96.11,0,0,1,96-96H576a32,32,0,0,0,0-64H160C71.78,96,0,167.78,0,256V800c0,88.22,71.78,160,160,160H704c88.22,0,160-71.78,160-160V384A32,32,0,0,0,832,352Z"/><path class="cls-1" d="M816,0C736.6,0,672,64.6,672,144s64.6,144,144,144,144-64.6,144-144S895.4,0,816,0Zm0,224a80,80,0,1,1,80-80A80.09,80.09,0,0,1,816,224Z"/></g></g></svg>