<svg xmlns="http://www.w3.org/2000/svg" viewBox="0 0 768 741.49"><defs><style>.cls-1{fill:#27aae1;}</style></defs><title>pen</title><g id="Layer_2" data-name="Layer 2"><g id="icon"><path class="cls-1" d="M758.63,78.86,707.88,28.12a96,96,0,0,0-135.76,0L169.37,430.86a32,32,0,0,0,0,45.26l96,96a32,32,0,0,0,45.26,0l384-384a32,32,0,0,0-45.26-45.26L288,504.24l-50.74-50.75L617.37,73.37a32,32,0,0,1,45.26,0l50.74,50.75a32,32,0,0,0,45.26-45.26Z"/><path class="cls-1" d="M150.63,494.86a32,32,0,0,0-51.25,8.32l-96,192a32,32,0,0,0,42.93,42.93l192-96a32,32,0,0,0,8.32-51.25ZM103.56,637.94l33.21-66.43L170,604.72Z"/></g></g></svg>