<svg xmlns="http://www.w3.org/2000/svg" viewBox="0 0 843.75 1022.61"><defs><style>.cls-1{fill:#27aae1;}</style></defs><title>pin</title><g id="Layer_2" data-name="Layer 2"><g id="icon"><path class="cls-1" d="M421.64,670.61a256,256,0,1,1,181-75A254.32,254.32,0,0,1,421.64,670.61Zm0-448c-105.87,0-192,86.13-192,192s86.13,192,192,192,192-86.14,192-192S527.51,222.61,421.64,222.61Z"/><path class="cls-1" d="M422.59,1022.61a31.91,31.91,0,0,1-23.29-10.05L114.87,710.9A421.64,421.64,0,0,1,719.79,123.5l.45.45a421.63,421.63,0,0,1,9.14,586.88L506,948.52a32,32,0,1,1-46.64-43.83L682.74,667A357.66,357.66,0,0,0,675,169.21l-.46-.45A357.64,357.64,0,0,0,161.43,667L445.87,968.65a32,32,0,0,1-23.28,54Z"/></g></g></svg>