<svg xmlns="http://www.w3.org/2000/svg" viewBox="0 0 739.21 1024"><defs><style>.cls-1{fill:#27aae1;}</style></defs><title>rocket</title><g id="Layer_2" data-name="Layer 2"><g id="icon"><path class="cls-1" d="M561.62,960h-384a32,32,0,1,0,0,64h384a32,32,0,0,0,0-64Z"/><path class="cls-1" d="M181.53,831.76a32,32,0,0,0,27.85-35.67C191.27,648.92,177.62,458,177.62,352c0-38.2,10.36-76.93,30.79-115.11,16.92-31.62,40.73-63,70.76-93.18a590.16,590.16,0,0,1,90.46-73.93c48.6,32.14,192,139.11,192,282.22,0,106-13.65,296.92-31.76,444.09a32,32,0,0,0,27.85,35.67,33.09,33.09,0,0,0,3.95.24,32,32,0,0,0,31.72-28.09c18.38-149.4,32.24-343.68,32.24-451.91,0-49.15-13.06-98.33-38.83-146.17-20-37.25-47.83-73.74-82.54-108.46C445.89,39,387.93,5.61,385.5,4.22a32,32,0,0,0-31.76,0C351.3,5.61,293.35,39,235,97.37c-34.72,34.72-62.49,71.21-82.55,108.46-25.76,47.84-38.82,97-38.82,146.17,0,108.23,13.86,302.51,32.24,451.91A32,32,0,0,0,181.53,831.76Z"/><path class="cls-1" d="M726.31,784.19l-36.82-64.13A32,32,0,0,0,634,751.94l36.82,64.12A32,32,0,0,1,643.06,864H96.15A32,32,0,0,1,68.4,816.07l36.81-64.14a32,32,0,1,0-55.5-31.86L12.89,784.21A96,96,0,0,0,96.15,928H643.06a96,96,0,0,0,83.25-143.81Z"/><path class="cls-1" d="M419.46,298.08a128.21,128.21,0,1,0,40.67,27.41A127.27,127.27,0,0,0,419.46,298.08ZM369.62,480a64,64,0,1,1,64-64A64,64,0,0,1,369.62,480Z"/></g></g></svg>