<svg xmlns="http://www.w3.org/2000/svg" viewBox="0 0 960 960"><defs><style>.cls-1{fill:#27aae1;}</style></defs><title>scale</title><g id="Layer_2" data-name="Layer 2"><g id="icon"><path class="cls-1" d="M864,640H832V224a95.47,95.47,0,0,0-9.38-41.37l64-64a32,32,0,0,0-45.26-45.26l-64,64A95.47,95.47,0,0,0,736,128H320V96a96,96,0,0,0-192,0v32H96a96,96,0,0,0,0,192h32V736a96.11,96.11,0,0,0,96,96H640v32a96,96,0,0,0,192,0V832h32a96,96,0,0,0,0-192Zm-96,0H704V301.25l64-64Zm-402.75,0L640,365.25V640Zm229.5-320L320,594.75V320ZM192,96a32,32,0,0,1,64,0v32H192ZM64,224a32,32,0,0,1,32-32H722.75l-64,64H96A32,32,0,0,1,64,224Zm192,96V658.75l-64,64V320ZM768,864a32,32,0,0,1-64,0V832h64Zm96-96H237.25l64-64H864a32,32,0,0,1,0,64Z"/></g></g></svg>