<svg xmlns="http://www.w3.org/2000/svg" viewBox="0 0 960 960"><defs><style>.cls-1{fill:#27aae1;}</style></defs><title>share</title><g id="Layer_2" data-name="Layer 2"><g id="icon"><path class="cls-1" d="M800,640a159.82,159.82,0,0,0-125.85,61.3L314.53,521.49a160.09,160.09,0,0,0,0-83L674.15,258.7A159.82,159.82,0,0,0,800,320c88.22,0,160-71.78,160-160S888.22,0,800,0,640,71.78,640,160a159.54,159.54,0,0,0,5.47,41.49L285.85,381.3A159.82,159.82,0,0,0,160,320C71.78,320,0,391.78,0,480S71.78,640,160,640a159.82,159.82,0,0,0,125.85-61.3L645.47,758.51A159.54,159.54,0,0,0,640,800c0,88.22,71.78,160,160,160s160-71.78,160-160S888.22,640,800,640Zm0-576a96,96,0,1,1-96,96A96.11,96.11,0,0,1,800,64ZM160,576a96,96,0,1,1,96-96A96.11,96.11,0,0,1,160,576ZM800,896a96,96,0,1,1,96-96A96.11,96.11,0,0,1,800,896Z"/></g></g></svg>