<svg xmlns="http://www.w3.org/2000/svg" viewBox="0 0 662.51 1024.01"><defs><style>.cls-1{fill:#27aae1;}</style></defs><title>water_drop</title><g id="Layer_2" data-name="Layer 2"><g id="icon"><path class="cls-1" d="M624.51,538.78,620,530.11c-36-68.43-73.2-139.19-108.33-209.35L423.87,145.5a32,32,0,0,0-57.23,28.66l87.75,175.25C489.8,420.15,527.17,491.19,563.3,559.9l4.56,8.67c52.48,99.78,36.3,222.54-40.25,305.47a266.93,266.93,0,0,1-392.71,0C58.35,791.11,42.17,668.35,94.65,568.57l4.56-8.67c36.13-68.71,73.5-139.75,108.91-210.49L359.87,46.33a32,32,0,1,0-57.23-28.65L150.89,320.76C115.76,390.92,78.55,461.68,42.56,530.11L38,538.78A331.2,331.2,0,0,0,574.64,917.45a331.3,331.3,0,0,0,49.87-378.67Z"/><path class="cls-1" d="M166.19,570A32,32,0,0,0,123,583.46a235.53,235.53,0,0,0,35.45,268.87,32,32,0,1,0,47-43.41,171.42,171.42,0,0,1-25.83-195.67A32,32,0,0,0,166.19,570Z"/></g></g></svg>