<svg xmlns="http://www.w3.org/2000/svg" viewBox="0 0 960 960"><defs><style>.cls-1{fill:#27aae1;}</style></defs><title>zoom_out</title><g id="Layer_2" data-name="Layer 2"><g id="icon"><path class="cls-1" d="M704,352H832a32,32,0,0,0,0-64H704a32,32,0,0,1-32-32V128a32,32,0,0,0-64,0V256A96.11,96.11,0,0,0,704,352Z"/><path class="cls-1" d="M736,256a31.9,31.9,0,0,0,22.63-9.37l192-192A32,32,0,0,0,905.37,9.37l-192,192A32,32,0,0,0,736,256Z"/><path class="cls-1" d="M128,288a32,32,0,0,0,0,64H256a96.11,96.11,0,0,0,96-96V128a32,32,0,0,0-64,0V256a32,32,0,0,1-32,32Z"/><path class="cls-1" d="M201.37,246.63a32,32,0,0,0,45.26-45.26l-192-192A32,32,0,0,0,9.37,54.63Z"/><path class="cls-1" d="M832,672a32,32,0,0,0,0-64H704a96.11,96.11,0,0,0-96,96V832a32,32,0,0,0,64,0V704a32,32,0,0,1,32-32Z"/><path class="cls-1" d="M758.63,713.37a32,32,0,0,0-45.26,45.26l192,192a32,32,0,0,0,45.26-45.26Z"/><path class="cls-1" d="M256,608H128a32,32,0,0,0,0,64H256a32,32,0,0,1,32,32V832a32,32,0,0,0,64,0V704A96.11,96.11,0,0,0,256,608Z"/><path class="cls-1" d="M201.37,713.37l-192,192a32,32,0,0,0,45.26,45.26l192-192a32,32,0,0,0-45.26-45.26Z"/><path class="cls-1" d="M480,352A128,128,0,1,0,608,480,128.14,128.14,0,0,0,480,352Zm0,192a64,64,0,1,1,64-64A64.07,64.07,0,0,1,480,544Z"/></g></g></svg>