<?xml version="1.0" encoding="UTF-8"?>
<svg width="124px" height="124px" viewBox="0 0 124 124" version="1.1" xmlns="http://www.w3.org/2000/svg" xmlns:xlink="http://www.w3.org/1999/xlink">
    <!-- Generator: Sketch 48.2 (47327) - http://www.bohemiancoding.com/sketch -->
    <title>Group 5</title>
    <desc>Created with Sketch.</desc>
    <defs>
        <rect id="path-1" x="0" y="0" width="124" height="124" rx="62"></rect>
    </defs>
    <g id="Components-Avatars" stroke="none" stroke-width="1" fill="none" fill-rule="evenodd" transform="translate(-1459.000000, -2238.000000)">
        <g id="Group-5" transform="translate(1459.000000, 2238.000000)">
            <mask id="mask-2" fill="white">
                <use xlink:href="#path-1"></use>
            </mask>
            <use id="Mask" fill="#FFB400" xlink:href="#path-1"></use>
            <g mask="url(#mask-2)" id="Group-2">
                <g transform="translate(27.000000, 13.000000)">
                    <g>
                        <g>
                            <path d="M69.0051,59.2468 L0.4441,59.2468 C1.3041,77.3738 16.3951,91.9358 34.7241,91.9358 C53.0541,91.9358 68.1451,77.3738 69.0051,59.2468" id="Fill-15" fill="#182D54"></path>
                            <path d="M69.449,135.2409 L69.449,102.1889 C69.449,83.0909 53.823,67.4649 34.725,67.4649 L34.724,67.4649 C15.626,67.4649 0,83.0909 0,102.1889 L0,135.2409 L69.449,135.2409 Z" id="Fill-16" fill="#FFC333"></path>
                            <path d="M43.0433,78.6213 C43.0433,83.2153 39.3193,86.9403 34.7243,86.9403 C30.1303,86.9403 26.4053,83.2153 26.4053,78.6213 C26.4053,74.0273 30.1303,70.3023 34.7243,70.3023 C39.3193,70.3023 43.0433,74.0273 43.0433,78.6213" id="Fill-17" fill="#FFFFFF"></path>
                            <polygon id="Fill-18" fill="#182D54" points="0.444 59.247 69.005 59.247 69.005 32.69 0.444 32.69"></polygon>
                            <path d="M34.7245,78.6213 L34.7245,78.6213 C17.1075,78.6213 2.6935,64.2073 2.6935,46.5903 L2.6935,34.2133 C2.6935,16.5963 17.1075,2.1833 34.7245,2.1833 L34.7245,2.1833 C52.3415,2.1833 66.7545,16.5963 66.7545,34.2133 L66.7545,46.5903 C66.7545,64.2073 52.3415,78.6213 34.7245,78.6213" id="Fill-19" fill="#FACB94"></path>
                            <path d="M23.0391,45.6951 C22.0861,45.6951 21.3131,44.9221 21.3131,43.9691 L21.3131,38.9681 C21.3131,38.0151 22.0861,37.2431 23.0391,37.2431 C23.9931,37.2431 24.7651,38.0151 24.7651,38.9681 L24.7651,43.9691 C24.7651,44.9221 23.9931,45.6951 23.0391,45.6951" id="Fill-20" fill="#231F20"></path>
                            <path d="M46.4091,45.6951 C45.4551,45.6951 44.6831,44.9221 44.6831,43.9691 L44.6831,38.9681 C44.6831,38.0151 45.4551,37.2431 46.4091,37.2431 C47.3641,37.2431 48.1361,38.0151 48.1361,38.9681 L48.1361,43.9691 C48.1361,44.9221 47.3641,45.6951 46.4091,45.6951" id="Fill-21" fill="#231F20"></path>
                            <path d="M0.4439,32.6896 L69.0049,32.6896 C68.1449,14.5626 53.0539,0.000599999999 34.7249,0.000599999999 C16.3949,0.000599999999 1.3039,14.5626 0.4439,32.6896" id="Fill-22" fill="#633719"></path>
                            <path d="M0.4439,32.6896 L69.0049,32.6896 C68.1449,14.5626 53.0539,0.000599999999 34.7249,0.000599999999 C16.3949,0.000599999999 1.3039,14.5626 0.4439,32.6896" id="Fill-23" fill="#182D54"></path>
                            <path d="M36.1669,102.9104 C36.1669,103.7074 35.5209,104.3524 34.7249,104.3524 C33.9279,104.3524 33.2819,103.7074 33.2819,102.9104 C33.2819,102.1134 33.9279,101.4684 34.7249,101.4684 C35.5209,101.4684 36.1669,102.1134 36.1669,102.9104" id="Fill-24" fill="#FFFFFF"></path>
                            <path d="M36.1669,110.4241 C36.1669,111.2211 35.5209,111.8661 34.7249,111.8661 C33.9279,111.8661 33.2819,111.2211 33.2819,110.4241 C33.2819,109.6271 33.9279,108.9821 34.7249,108.9821 C35.5209,108.9821 36.1669,109.6271 36.1669,110.4241" id="Fill-25" fill="#FFFFFF"></path>
                            <path d="M42.9475,59.4524 C42.9475,63.9044 39.3385,67.5134 34.8865,67.5134 C30.4345,67.5134 26.8255,63.9044 26.8255,59.4524 L42.9475,59.4524 Z" id="Fill-28" fill="#FAB075"></path>
                            <path d="M20.7787,54.5959 L14.3607,54.5959 C13.2157,54.5959 12.2787,53.6589 12.2787,52.5139 C12.2787,51.3689 13.2157,50.4329 14.3607,50.4329 L20.7787,50.4329 C21.9237,50.4329 22.8607,51.3689 22.8607,52.5139 C22.8607,53.6589 21.9237,54.5959 20.7787,54.5959" id="Fill-29" fill="#FAB094"></path>
                            <path d="M55.0884,54.5959 L48.6704,54.5959 C47.5254,54.5959 46.5884,53.6589 46.5884,52.5139 C46.5884,51.3689 47.5254,50.4329 48.6704,50.4329 L55.0884,50.4329 C56.2334,50.4329 57.1704,51.3689 57.1704,52.5139 C57.1704,53.6589 56.2334,54.5959 55.0884,54.5959" id="Fill-30" fill="#FAB094"></path>
                            <path d="M16.5945,32.9975 C16.5945,32.9975 21.8972204,34.5000005 24.7654995,34.5000005 C27.3445537,34.5000005 32.9365,32.9975 32.9365,32.9975 C28.4425,32.9965 24.7655,29.3195 24.7655,24.8255 C24.7655,29.3195 21.0885,32.9965 16.5945,32.9975 Z" id="Fill-31" fill="#FACB94"></path>
                        </g>
                    </g>
                </g>
            </g>
        </g>
    </g>
</svg>