<?xml version="1.0" encoding="UTF-8"?>
<svg width="124px" height="124px" viewBox="0 0 124 124" version="1.1" xmlns="http://www.w3.org/2000/svg" xmlns:xlink="http://www.w3.org/1999/xlink">
    <defs>
        <rect id="path-1" x="0" y="0" width="124" height="124" rx="62"></rect>
    </defs>
    <g id="Components-Avatars" stroke="none" stroke-width="1" fill="none" fill-rule="evenodd" transform="translate(-1611.000000, -2238.000000)">
        <g id="Group-7-Copy-6" transform="translate(1611.000000, 2238.000000)">
            <g id="Group-4-Copy-2">
                <mask id="mask-2" fill="white">
                    <use xlink:href="#path-1"></use>
                </mask>
                <use id="Mask" fill="#456296" xlink:href="#path-1"></use>
                <g id="Group-4" mask="url(#mask-2)">
                    <g transform="translate(27.000000, 15.000000)" id="Group">
                        <g>
                            <g fill="#95ABD3">
                                <path d="M16.3294668,70.5902531 C8.09643428,64.778548 2.6935,55.1935418 2.6935,44.4083 L2.6935,32.0303 C2.6935,14.4133 17.1075,0.000300000002 34.7245,0.000300000002 C52.3415,0.000300000002 66.7555,14.4133 66.7555,32.0303 L66.7555,44.4083 C66.7555,55.1935418 61.3525657,64.778548 53.1195332,70.5902531 C62.9088404,76.7483065 69.449,87.6505618 69.449,100.006 L69.449,116.532 L69.449,133.058 L34.7245,133.058 L0,133.058 L0,100.006 C0,87.6505618 6.54015956,76.7483065 16.3294625,70.59025 Z" id="Combined-Shape"></path>
                                <polygon id="Fill-3" points="23.039 133.058 46.41 133.058 46.41 69.378 23.039 69.378"></polygon>
                                <path d="M23.0391,42.9643 C22.0861,42.9643 21.3131,42.1913 21.3131,41.2383 L21.3131,36.2373 C21.3131,35.2843 22.0861,34.5123 23.0391,34.5123 C23.9931,34.5123 24.7651,35.2843 24.7651,36.2373 L24.7651,41.2383 C24.7651,42.1913 23.9931,42.9643 23.0391,42.9643" id="Fill-7"></path>
                                <path d="M46.4091,42.9643 C45.4551,42.9643 44.6831,42.1913 44.6831,41.2383 L44.6831,36.2373 C44.6831,35.2843 45.4551,34.5123 46.4091,34.5123 C47.3641,34.5123 48.1361,35.2843 48.1361,36.2373 L48.1361,41.2383 C48.1361,42.1913 47.3641,42.9643 46.4091,42.9643" id="Fill-8"></path>
                                <path d="M2.7356,30.5067 L2.7326,30.5067 C3.5356,13.5907 17.6186,-0.0003 34.7246,-0.0003 C51.8306,-0.0003 65.9136,13.5907 66.7156,30.5067 L35.2526,30.5067 L2.7356,30.5067 Z" id="Fill-9"></path>
                                <path d="M42.9475,57.2694 C42.9475,61.7214 39.3385,65.3304 34.8865,65.3304 C30.4345,65.3304 26.8255,61.7214 26.8255,57.2694 L42.9475,57.2694 Z" id="Fill-10"></path>
                                <path d="M10.6513,30.5071 C10.6513,30.5071 19.1471572,32.4999998 23.0973001,32.4999998 C27.4441572,32.4999998 35.5423,30.5071 35.5423,30.5071 C28.6973,30.5051 23.0973,24.9051 23.0973,18.0591 C23.0973,24.9051 17.4973,30.5051 10.6513,30.5071 Z" id="Fill-11"></path>
                            </g>
                        </g>
                    </g>
                </g>
            </g>
        </g>
    </g>
</svg>
