<?xml version="1.0" encoding="UTF-8"?>
<svg width="124px" height="124px" viewBox="0 0 124 124" version="1.1" xmlns="http://www.w3.org/2000/svg" xmlns:xlink="http://www.w3.org/1999/xlink">
    <!-- Generator: Sketch 48.2 (47327) - http://www.bohemiancoding.com/sketch -->
    <title>Group 7</title>
    <desc>Created with Sketch.</desc>
    <defs>
        <rect id="path-1" x="0" y="0" width="124" height="124" rx="62"></rect>
    </defs>
    <g id="Components-Avatars" stroke="none" stroke-width="1" fill="none" fill-rule="evenodd" transform="translate(-1611.000000, -2071.000000)">
        <g id="Group-7" transform="translate(1611.000000, 2071.000000)">
            <g id="Group-4-Copy-2">
                <mask id="mask-2" fill="white">
                    <use xlink:href="#path-1"></use>
                </mask>
                <use id="Mask" fill="#7189B6" xlink:href="#path-1"></use>
                <g id="Group-4" mask="url(#mask-2)">
                    <g transform="translate(27.000000, 15.000000)" id="Group">
                        <g>
                            <g>
                                <path d="M69.449,116.532 L69.449,100.006 C69.449,80.908 53.823,65.282 34.725,65.282 L34.724,65.282 C15.626,65.282 0,80.908 0,100.006 L0,133.058 L34.7245,133.058 L69.449,133.058 L69.449,116.532 L69.449,116.532 Z" id="Fill-1" fill="#95ABD3"></path>
                                <polygon id="Fill-3" fill="#95ABD3" points="23.039 133.058 46.41 133.058 46.41 69.378 23.039 69.378"></polygon>
                                <path d="M36.4709,82.9664 L36.4709,82.9664 L35.3349,80.9994 C35.0639,80.5294 34.3849,80.5294 34.1139,80.9994 L31.4069,85.6884 L30.7959,86.7464 L30.7959,88.1804 L30.7959,88.1804 L30.7959,123.2934 C30.7959,124.0854 31.4379,124.7274 32.2299,124.7274 L37.2189,124.7274 C38.0109,124.7274 38.6529,124.0854 38.6529,123.2934 L38.6529,90.5244 L38.6529,88.1804 L38.6529,86.7464 L38.6529,86.7464 L36.4709,82.9664 Z" id="Fill-5" fill="#95ABD3"></path>
                                <path d="M34.7245,76.4383 L34.7245,76.4383 C17.1075,76.4383 2.6935,62.0243 2.6935,44.4083 L2.6935,32.0303 C2.6935,14.4133 17.1075,0.0003 34.7245,0.0003 L34.7245,0.0003 C52.3415,0.0003 66.7555,14.4133 66.7555,32.0303 L66.7555,44.4083 C66.7555,62.0243 52.3415,76.4383 34.7245,76.4383" id="Fill-6" fill="#D8E2F5"></path>
                                <path d="M23.0391,42.9643 C22.0861,42.9643 21.3131,42.1913 21.3131,41.2383 L21.3131,36.2373 C21.3131,35.2843 22.0861,34.5123 23.0391,34.5123 C23.9931,34.5123 24.7651,35.2843 24.7651,36.2373 L24.7651,41.2383 C24.7651,42.1913 23.9931,42.9643 23.0391,42.9643" id="Fill-7" fill="#D8E2F5"></path>
                                <path d="M46.4091,42.9643 C45.4551,42.9643 44.6831,42.1913 44.6831,41.2383 L44.6831,36.2373 C44.6831,35.2843 45.4551,34.5123 46.4091,34.5123 C47.3641,34.5123 48.1361,35.2843 48.1361,36.2373 L48.1361,41.2383 C48.1361,42.1913 47.3641,42.9643 46.4091,42.9643" id="Fill-8" fill="#D8E2F5"></path>
                                <path d="M2.7356,30.5067 L2.7326,30.5067 C3.5356,13.5907 17.6186,-0.0003 34.7246,-0.0003 C51.8306,-0.0003 65.9136,13.5907 66.7156,30.5067 L35.2526,30.5067 L2.7356,30.5067 Z" id="Fill-9" fill="#95ABD3"></path>
                                <path d="M42.9475,57.2694 C42.9475,61.7214 39.3385,65.3304 34.8865,65.3304 C30.4345,65.3304 26.8255,61.7214 26.8255,57.2694 L42.9475,57.2694 Z" id="Fill-10" fill="#D8E2F5"></path>
                                <path d="M10.6513,30.5071 C10.6513,30.5071 19.1471572,32.4999998 23.0973001,32.4999998 C27.4441572,32.4999998 35.5423,30.5071 35.5423,30.5071 C28.6973,30.5051 23.0973,24.9051 23.0973,18.0591 C23.0973,24.9051 17.4973,30.5051 10.6513,30.5071 Z" id="Fill-11" fill="#D8E2F5"></path>
                            </g>
                        </g>
                    </g>
                </g>
            </g>
        </g>
    </g>
</svg>