<?xml version="1.0" encoding="UTF-8"?>
<svg width="124px" height="124px" viewBox="0 0 124 124" version="1.1" xmlns="http://www.w3.org/2000/svg" xmlns:xlink="http://www.w3.org/1999/xlink">
    <!-- Generator: Sketch 48.2 (47327) - http://www.bohemiancoding.com/sketch -->
    <title>Group 8</title>
    <desc>Created with Sketch.</desc>
    <defs></defs>
    <g id="Components-Avatars" stroke="none" stroke-width="1" fill="none" fill-rule="evenodd" transform="translate(-1763.000000, -2071.000000)">
        <g id="Group-8" transform="translate(1763.000000, 2071.000000)">
            <rect id="Rectangle-1238-Copy-5" fill="#456296" x="0" y="0" width="124" height="124" rx="62"></rect>
            <g id="Group-4-Copy-7" transform="translate(38.000000, 39.000000)" fill="#FFFFFF">
                <g id="Group">
                    <g>
                        <g id="Group-6">
                            <path d="M3.14284416,15.3901036 C1.40754261,15.3901036 0,13.982561 0,12.2472595 L0,3.14102328 C0,1.40572172 1.40754261,0 3.14284416,0 C4.8799666,0 6.28568832,1.40572172 6.28568832,3.14102328 L6.28568832,12.2472595 C6.28568832,13.982561 4.8799666,15.3901036 3.14284416,15.3901036" id="Fill-7"></path>
                            <path d="M45.1428442,15.3901036 C43.4057217,15.3901036 42,13.982561 42,12.2472595 L42,3.14102328 C42,1.40572172 43.4057217,0 45.1428442,0 C46.8817875,0 48.2875092,1.40572172 48.2875092,3.14102328 L48.2875092,12.2472595 C48.2875092,13.982561 46.8817875,15.3901036 45.1428442,15.3901036" id="Fill-8"></path>
                        </g>
                        <path d="M38.3562767,41 C38.3562767,49.1065714 31.7847097,55.6781384 23.6781384,55.6781384 C15.571567,55.6781384 9,49.1065714 9,41 L38.3562767,41 Z" id="Fill-10"></path>
                    </g>
                </g>
            </g>
        </g>
    </g>
</svg>